<svg width="23" height="39" viewBox="0 0 23 39" fill="none" xmlns="http://www.w3.org/2000/svg">
<path d="M22.8227 38.251L20.7738 31.7084C20.762 31.6676 20.7601 31.624 20.7684 31.5822L21.2451 29.179C21.2572 29.1177 21.2684 29.0563 21.2796 28.9948L21.2987 28.8903C21.3569 28.5808 21.1531 28.2828 20.8435 28.2247C20.5339 28.1668 20.2361 28.3704 20.1779 28.6799L20.1574 28.7913C20.1474 28.8467 20.1374 28.902 20.1265 28.9572L19.6498 31.3603C19.6061 31.5806 19.6161 31.811 19.6788 32.0266L21.7276 38.5692C21.8001 38.8185 22.0278 38.9805 22.275 38.9805C22.3277 38.9805 22.3812 38.9731 22.4343 38.9577C22.7366 38.8698 22.9106 38.5535 22.8227 38.251Z" fill="#D9D9D9"/>
<path d="M20.6582 18.7587V23.5446C20.6582 24.4581 20.6121 25.3847 20.5211 26.2989C20.49 26.6123 20.7187 26.8917 21.0321 26.9228C21.3457 26.9544 21.6249 26.7252 21.656 26.4119C21.7507 25.4603 21.7987 24.4956 21.7987 23.5446V18.7587C21.7987 17.6091 20.8634 16.6738 19.7138 16.6738C18.6352 16.6738 17.7224 17.516 17.6357 18.5911L17.3273 22.415C15.1251 24.1062 13.5716 26.5235 12.9493 29.2312L12.5381 31.0205C12.4675 31.3274 12.6592 31.6335 12.9661 31.7039C13.0091 31.7138 13.052 31.7185 13.0944 31.7185C13.3542 31.7185 13.589 31.5399 13.6496 31.2759L14.0609 29.4866C14.6297 27.0113 16.0587 24.8042 18.0842 23.272L18.2192 23.1699C18.3489 23.0718 18.4305 22.923 18.4436 22.7609L18.7725 18.6827C18.8118 18.1957 19.2253 17.8142 19.7138 17.8142C20.2346 17.8143 20.6582 18.2379 20.6582 18.7587Z" fill="#D9D9D9"/>
<path d="M12.4308 35.6329C12.3724 35.3969 12.2134 35.2008 11.9944 35.0952L11.7257 34.9655C10.2019 34.2299 9.03182 32.9536 8.4311 31.3717L8.21616 30.8058H11.2139C11.5288 30.8058 11.7841 30.5505 11.7841 30.2356C11.7841 29.9207 11.5288 29.6654 11.2139 29.6654H3.29386C2.1918 29.6654 1.29525 28.7688 1.29525 27.6667V9.41398C1.29525 9.09906 1.03993 8.84375 0.725015 8.84375C0.410096 8.84375 0.154785 9.09906 0.154785 9.41398V27.6667C0.154785 29.3977 1.56295 30.8058 3.29386 30.8058H6.99625L7.36492 31.7766C8.06965 33.6323 9.44223 35.1295 11.2298 35.9925L11.3604 36.0556L11.9804 38.566C12.0445 38.8258 12.2773 38.9996 12.5335 38.9996C12.5787 38.9996 12.6247 38.9942 12.6706 38.9828C12.9764 38.9073 13.163 38.5983 13.0875 38.2925L12.4308 35.6329Z" fill="#D9D9D9"/>
<path d="M0.725015 7.55441C1.03993 7.55441 1.29525 7.29909 1.29525 6.98418V3.13908C1.29525 2.03701 2.1918 1.14046 3.29386 1.14046H4.97384V1.5473C4.97384 2.80143 5.99409 3.82176 7.24829 3.82176H11.6442C12.8983 3.82176 13.9186 2.8015 13.9186 1.5473V1.14046H15.5986C16.7007 1.14046 17.5972 2.03701 17.5972 3.13908V15.403C17.5972 15.718 17.8525 15.9733 18.1674 15.9733C18.4824 15.9733 18.7377 15.718 18.7377 15.403V3.13908C18.7376 1.40816 17.3293 0 15.5985 0H3.29386C1.56295 0 0.154785 1.40816 0.154785 3.13908V6.98418C0.154785 7.29909 0.410096 7.55441 0.725015 7.55441ZM12.7781 1.5473C12.7781 2.17258 12.2694 2.6813 11.6441 2.6813H7.24822C6.62294 2.6813 6.11422 2.17265 6.11422 1.5473V1.14046H12.778V1.5473H12.7781Z" fill="#D9D9D9"/>
<path d="M12.3016 22.5412C11.9866 22.5412 11.7313 22.7965 11.7313 23.1114C11.7313 23.4264 11.9866 23.6817 12.3016 23.6817H13.8175C14.4122 23.6817 14.8962 23.1977 14.8962 22.603V20.3727C14.8962 19.7779 14.4122 19.2939 13.8175 19.2939H5.07531C4.48052 19.2939 3.99658 19.7779 3.99658 20.3727V22.603C3.99658 23.1977 4.48052 23.6817 5.07531 23.6817H9.87155C10.1865 23.6817 10.4418 23.4264 10.4418 23.1114C10.4418 22.7965 10.1865 22.5412 9.87155 22.5412H5.13704V20.4344H13.7557V22.5412H12.3016Z" fill="#D9D9D9"/>
<path d="M15.0686 7.59142C14.8495 7.36531 14.4885 7.35945 14.2623 7.57865L12.0211 9.74978C11.8277 9.63763 11.604 9.5724 11.3648 9.5724H7.52752C6.80318 9.5724 6.21387 10.1617 6.21387 10.8861V14.4857C6.21387 15.21 6.80318 15.7992 7.52752 15.7992H11.3648C12.0891 15.7992 12.6784 15.21 12.6784 14.4857V10.8861C12.6784 10.8273 12.6732 10.7699 12.6658 10.7132L15.0558 8.3978C15.282 8.17861 15.2878 7.81761 15.0686 7.59142ZM11.5381 14.4855C11.5381 14.581 11.4604 14.6586 11.3649 14.6586H7.5276C7.43211 14.6586 7.3544 14.581 7.3544 14.4855V10.8859C7.3544 10.7904 7.43211 10.7127 7.5276 10.7127H11.0271L9.2649 12.4197L8.9163 12.1161C8.67878 11.9093 8.31862 11.9341 8.11174 12.1716C7.90486 12.4091 7.92973 12.7693 8.16725 12.9761L8.9109 13.6238C9.01856 13.7175 9.152 13.764 9.28535 13.764C9.42875 13.764 9.57191 13.7102 9.68216 13.6034L11.5381 11.8055V14.4855Z" fill="#D9D9D9"/>
</svg>
