<svg width="39" height="38" viewBox="0 0 39 38" fill="none" xmlns="http://www.w3.org/2000/svg">
<g clip-path="url(#clip0_49_6932)">
<path d="M13.0399 16.9882V11.4102C13.0399 10.8985 12.6129 10.4824 12.088 10.4824H5.21289C4.68772 10.4824 4.26074 10.8985 4.26074 11.4102V16.9882C4.26074 17.4999 4.68772 17.9159 5.21289 17.9159H12.088C12.6129 17.9159 13.0399 17.4999 13.0399 16.9882ZM11.8973 16.8026H5.40332V11.5957H11.8973V16.8026Z" fill="#D9D9D9"/>
<path d="M38.906 32.7421L37.6414 30.2282C37.5028 29.9522 37.1606 29.838 36.877 29.9734C36.5938 30.1088 36.4765 30.4419 36.6155 30.7182L37.6444 32.7635H33.9319C34.0622 32.3652 34.1333 31.941 34.1333 31.5004C34.1333 29.2332 32.2707 27.3888 29.9814 27.3888C28.6528 27.3888 27.4692 28.0103 26.7087 28.9746H24.4057C23.6454 28.0103 22.4615 27.3888 21.1329 27.3888C19.8047 27.3888 18.6211 28.0103 17.8605 28.9746H16.0562C16.0128 28.1449 15.8063 27.3574 15.47 26.6416H34.5285C34.5445 26.6466 34.5695 26.6619 34.5811 26.6738L35.4214 28.344C35.5604 28.62 35.9025 28.7343 36.1858 28.5989C36.4691 28.4638 36.5863 28.1304 36.4474 27.8541L35.602 26.1734C35.4809 25.9328 35.2524 25.7351 34.9912 25.6243C35.5 24.1359 35.7585 22.5857 35.7585 21.003C35.7585 19.1006 35.3866 17.2446 34.6532 15.4868C34.5657 15.2772 34.3565 15.14 34.1241 15.14H31.5846C31.2692 15.14 31.0133 15.3891 31.0133 15.6967V16.3313H29.3158L30.4548 12.6882C30.5437 12.4032 30.611 11.9631 30.611 11.6648V9.44057C30.611 8.89089 30.1557 8.44354 29.5958 8.44354H23.2649C22.7052 8.44354 22.2499 8.8906 22.2499 9.44057V11.6648C22.2499 11.9631 22.3169 12.4032 22.4061 12.6882L23.5448 16.3313H21.8682V15.036C21.8682 14.292 21.2534 13.6864 20.498 13.6864H18.3678C17.6124 13.6864 16.9976 14.2917 16.9976 15.036V16.3313H15.6123V9.31474H16.3484C16.8733 9.31474 17.3002 8.89842 17.3002 8.38701V5.75427C17.3002 5.45305 17.1497 5.16951 16.8971 4.99614C14.4718 3.32999 11.6204 2.44922 8.65027 2.44922C5.68016 2.44922 2.82848 3.32999 0.403473 4.99585C0.150856 5.16951 0 5.45305 0 5.75427V8.38701C0 8.89842 0.426979 9.31474 0.952149 9.31474H1.68798V25.5315C1.19227 25.5631 0.798912 25.9653 0.798912 26.4561V29.1601C0.798912 29.6716 1.22589 30.0879 1.75106 30.0879H3.33371C3.42654 30.828 3.6503 31.5502 3.99426 32.2101C4.13738 32.4843 4.48105 32.5933 4.76223 32.4542C5.04371 32.315 5.15588 31.9799 5.01276 31.7059C4.62387 30.96 4.4266 30.1522 4.4266 29.3057C4.4266 26.4271 6.78079 24.0854 9.67443 24.0854C12.5681 24.0854 14.9223 26.4271 14.9223 29.3057C14.9223 32.1843 12.5681 34.5259 9.67443 34.5259C8.55565 34.5259 7.48805 34.1806 6.58679 33.5275C6.33387 33.3439 5.97592 33.395 5.78758 33.6417C5.59923 33.8881 5.6516 34.2369 5.90481 34.4204C7.00454 35.2177 8.30809 35.6392 9.67443 35.6392C12.9308 35.6392 15.6242 33.2123 16.0142 30.0879H17.2333C17.0702 30.5286 16.981 31.0043 16.981 31.5004C16.981 33.7675 18.8436 35.612 21.1329 35.612C23.4226 35.612 25.2852 33.7675 25.2852 31.5004C25.2852 31.0043 25.1959 30.5286 25.0329 30.0879H26.0814C25.9184 30.5286 25.8291 31.0043 25.8291 31.5004C25.8291 33.7675 27.6918 35.612 29.9814 35.612C31.3769 35.612 32.6132 34.9257 33.3663 33.8768H38.1797C38.4808 33.8768 38.7379 33.7458 38.8843 33.5167C39.0307 33.2883 39.0387 33.0056 38.906 32.7421ZM32.1558 16.2533H33.734C34.8909 19.2557 34.9183 22.5135 33.8176 25.5284H32.1558V16.2533ZM19.924 25.5284H15.6123V22.1984H19.924V25.5284ZM25.3266 25.5284H21.0666V22.1984H25.3266V25.5284ZM31.0133 17.4446V25.5284H26.4691V22.17C27.1594 22.036 27.6816 21.4356 27.6816 20.7163C27.6816 19.9973 27.1594 19.3969 26.4691 19.263V17.4446H31.0133ZM23.3922 9.55683H29.4684V11.1082H23.3922V9.55683ZM23.499 12.3641C23.4862 12.3235 23.474 12.2745 23.4624 12.2215H29.3982C29.3866 12.2745 29.3744 12.3235 29.3616 12.3641L28.1214 16.3313H24.7392L23.499 12.3641ZM21.0666 17.4446H25.3266V19.2345H21.0666V17.4446ZM18.1402 15.036C18.1402 14.9058 18.2423 14.7997 18.3675 14.7997H20.498C20.6232 14.7997 20.7253 14.9058 20.7253 15.036V16.3313H18.1399V15.036H18.1402ZM19.924 17.4446V19.2345H15.6123V17.4446H19.924ZM3.29295 28.9746H1.94149V26.6416H3.87911C3.54259 27.3574 3.33639 28.1449 3.29295 28.9746ZM14.4697 25.1257C13.2976 23.8065 11.5829 22.9722 9.67443 22.9722C7.57791 22.9722 5.71438 23.9782 4.5483 25.5284H2.83056V9.31474H10.2829C10.5986 9.31474 10.8542 9.06542 10.8542 8.7581C10.8542 8.4505 10.5986 8.20146 10.2829 8.20146H1.14258V5.85082C3.35632 4.35339 5.95004 3.5625 8.65027 3.5625C11.3505 3.5625 13.9439 4.35339 16.1577 5.85082V8.20146H13.0251C12.7097 8.20146 12.4538 8.4505 12.4538 8.7581C12.4538 9.06542 12.7097 9.31474 13.0251 9.31474H14.4697V19.2345H13.841C13.012 19.2345 12.3378 19.8993 12.3378 20.7163C12.3378 21.5336 13.012 22.1984 13.841 22.1984H14.4697V25.1257ZM13.841 21.0851C13.6419 21.0851 13.4803 20.9198 13.4803 20.7163C13.4803 20.5134 13.6419 20.3478 13.841 20.3478H26.1784C26.3775 20.3478 26.5391 20.5134 26.5391 20.7163C26.5391 20.9198 26.3775 21.0851 26.1784 21.0851H13.841ZM21.1332 34.4987C19.4735 34.4987 18.1236 33.1535 18.1236 31.5004C18.1236 29.8472 19.4735 28.502 21.1332 28.502C22.7927 28.502 24.1426 29.8472 24.1426 31.5004C24.1426 33.1535 22.7927 34.4987 21.1332 34.4987ZM29.9814 34.4987C28.322 34.4987 26.9717 33.1535 26.9717 31.5004C26.9717 29.8472 28.322 28.502 29.9814 28.502C31.6408 28.502 32.9908 29.8472 32.9908 31.5004C32.9908 33.1535 31.6408 34.4987 29.9814 34.4987Z" fill="#D9D9D9"/>
<path d="M9.67454 32.4058C11.4012 32.4058 12.8056 31.0151 12.8056 29.3055C12.8056 27.5958 11.4012 26.2051 9.67454 26.2051C7.94817 26.2051 6.54346 27.5958 6.54346 29.3055C6.54346 31.0151 7.94817 32.4058 9.67454 32.4058ZM9.67454 27.3181C10.771 27.3181 11.6633 28.2096 11.6633 29.3055C11.6633 30.401 10.771 31.2925 9.67454 31.2925C8.57808 31.2925 7.68604 30.401 7.68604 29.3055C7.68604 28.2096 8.57808 27.3181 9.67454 27.3181Z" fill="#D9D9D9"/>
<path d="M29.9815 29.5918C28.9154 29.5918 28.0483 30.4482 28.0483 31.5006C28.0483 32.553 28.9154 33.4091 29.9815 33.4091C31.0473 33.4091 31.9147 32.553 31.9147 31.5006C31.9147 30.4482 31.0473 29.5918 29.9815 29.5918ZM29.9815 32.2959C29.5456 32.2959 29.1909 31.939 29.1909 31.5006C29.1909 31.062 29.5456 30.7051 29.9815 30.7051C30.4174 30.7051 30.7721 31.062 30.7721 31.5006C30.7721 31.939 30.4174 32.2959 29.9815 32.2959Z" fill="#D9D9D9"/>
<path d="M21.1334 29.5918C20.0672 29.5918 19.2002 30.4482 19.2002 31.5006C19.2002 32.553 20.0672 33.4091 21.1334 33.4091C22.1992 33.4091 23.0665 32.553 23.0665 31.5006C23.0662 30.4482 22.1992 29.5918 21.1334 29.5918ZM21.1334 32.2959C20.6974 32.2959 20.3428 31.939 20.3428 31.5006C20.3428 31.062 20.6972 30.7051 21.1334 30.7051C21.5693 30.7051 21.9239 31.062 21.9239 31.5006C21.9239 31.939 21.5693 32.2959 21.1334 32.2959Z" fill="#D9D9D9"/>
</g>
<defs>
<clipPath id="clip0_49_6932">
<rect width="39" height="38" fill="white"/>
</clipPath>
</defs>
</svg>
