<svg width="23" height="39" viewBox="0 0 23 39" fill="none" xmlns="http://www.w3.org/2000/svg">
<path d="M22.8227 38.251L20.7738 31.7084C20.762 31.6676 20.7601 31.624 20.7684 31.5822L21.2451 29.179C21.2572 29.1177 21.2684 29.0563 21.2796 28.9948L21.2987 28.8903C21.3569 28.5808 21.1531 28.2828 20.8435 28.2247C20.5339 28.1668 20.2361 28.3704 20.1779 28.6799L20.1574 28.7913C20.1474 28.8467 20.1374 28.902 20.1265 28.9572L19.6498 31.3603C19.6061 31.5806 19.6161 31.811 19.6788 32.0266L21.7276 38.5692C21.8001 38.8185 22.0278 38.9805 22.275 38.9805C22.3277 38.9805 22.3812 38.9731 22.4343 38.9577C22.7366 38.8698 22.9106 38.5535 22.8227 38.251Z" fill="#665CD1"/>
<path d="M20.6582 18.7582V23.5441C20.6582 24.4576 20.6121 25.3842 20.5211 26.2984C20.49 26.6118 20.7187 26.8912 21.0321 26.9223C21.3457 26.9539 21.6249 26.7247 21.656 26.4114C21.7507 25.4598 21.7987 24.4951 21.7987 23.5442V18.7582C21.7987 17.6086 20.8634 16.6733 19.7138 16.6733C18.6352 16.6733 17.7224 17.5155 17.6357 18.5906L17.3273 22.4145C15.1251 24.1057 13.5716 26.523 12.9493 29.2307L12.5381 31.02C12.4675 31.327 12.6592 31.633 12.9661 31.7035C13.0091 31.7133 13.052 31.7181 13.0944 31.7181C13.3542 31.7181 13.589 31.5394 13.6496 31.2754L14.0609 29.4861C14.6297 27.0108 16.0587 24.8038 18.0842 23.2715L18.2192 23.1694C18.3489 23.0713 18.4305 22.9225 18.4436 22.7604L18.7725 18.6822C18.8118 18.1952 19.2253 17.8137 19.7138 17.8137C20.2346 17.8138 20.6582 18.2374 20.6582 18.7582Z" fill="#665CD1"/>
<path d="M12.4308 35.6334C12.3724 35.3974 12.2134 35.2013 11.9944 35.0957L11.7257 34.966C10.2019 34.2303 9.03182 32.9541 8.4311 31.3722L8.21616 30.8063H11.2139C11.5288 30.8063 11.7841 30.551 11.7841 30.2361C11.7841 29.9212 11.5288 29.6658 11.2139 29.6658H3.29386C2.1918 29.6658 1.29525 28.7693 1.29525 27.6672V9.41447C1.29525 9.09955 1.03993 8.84424 0.725015 8.84424C0.410096 8.84424 0.154785 9.09955 0.154785 9.41447V27.6672C0.154785 29.3981 1.56295 30.8063 3.29386 30.8063H6.99625L7.36492 31.7771C8.06965 33.6327 9.44223 35.13 11.2298 35.993L11.3604 36.0561L11.9804 38.5664C12.0445 38.8262 12.2773 39.0001 12.5335 39.0001C12.5787 39.0001 12.6247 38.9946 12.6706 38.9833C12.9764 38.9078 13.163 38.5988 13.0875 38.293L12.4308 35.6334Z" fill="#665CD1"/>
<path d="M0.725015 7.55441C1.03993 7.55441 1.29525 7.29909 1.29525 6.98418V3.13908C1.29525 2.03701 2.1918 1.14046 3.29386 1.14046H4.97384V1.5473C4.97384 2.80143 5.99409 3.82176 7.24829 3.82176H11.6442C12.8983 3.82176 13.9186 2.8015 13.9186 1.5473V1.14046H15.5986C16.7007 1.14046 17.5972 2.03701 17.5972 3.13908V15.403C17.5972 15.718 17.8525 15.9733 18.1674 15.9733C18.4824 15.9733 18.7377 15.718 18.7377 15.403V3.13908C18.7376 1.40816 17.3293 0 15.5985 0H3.29386C1.56295 0 0.154785 1.40816 0.154785 3.13908V6.98418C0.154785 7.29909 0.410096 7.55441 0.725015 7.55441ZM12.7781 1.5473C12.7781 2.17258 12.2694 2.6813 11.6441 2.6813H7.24822C6.62294 2.6813 6.11422 2.17265 6.11422 1.5473V1.14046H12.778V1.5473H12.7781Z" fill="#665CD1"/>
<path d="M12.3016 22.5417C11.9866 22.5417 11.7313 22.797 11.7313 23.1119C11.7313 23.4269 11.9866 23.6822 12.3016 23.6822H13.8175C14.4122 23.6822 14.8962 23.1982 14.8962 22.6034V20.3732C14.8962 19.7784 14.4122 19.2944 13.8175 19.2944H5.07531C4.48052 19.2944 3.99658 19.7784 3.99658 20.3732V22.6034C3.99658 23.1982 4.48052 23.6822 5.07531 23.6822H9.87155C10.1865 23.6822 10.4418 23.4269 10.4418 23.1119C10.4418 22.797 10.1865 22.5417 9.87155 22.5417H5.13704V20.4349H13.7557V22.5417H12.3016Z" fill="#665CD1"/>
<path d="M15.0686 7.59191C14.8495 7.36579 14.4885 7.35994 14.2623 7.57914L12.0211 9.75027C11.8277 9.63812 11.604 9.57289 11.3648 9.57289H7.52752C6.80318 9.57289 6.21387 10.1622 6.21387 10.8865V14.4861C6.21387 15.2105 6.80318 15.7997 7.52752 15.7997H11.3648C12.0891 15.7997 12.6784 15.2105 12.6784 14.4861V10.8865C12.6784 10.8278 12.6732 10.7704 12.6658 10.7137L15.0558 8.39829C15.282 8.17909 15.2878 7.8181 15.0686 7.59191ZM11.5381 14.486C11.5381 14.5815 11.4604 14.6591 11.3649 14.6591H7.5276C7.43211 14.6591 7.3544 14.5815 7.3544 14.486V10.8864C7.3544 10.7909 7.43211 10.7132 7.5276 10.7132H11.0271L9.2649 12.4202L8.9163 12.1166C8.67878 11.9098 8.31862 11.9346 8.11174 12.1721C7.90486 12.4096 7.92973 12.7697 8.16725 12.9766L8.9109 13.6243C9.01856 13.718 9.152 13.7645 9.28535 13.7645C9.42875 13.7645 9.57191 13.7107 9.68216 13.6039L11.5381 11.806V14.486Z" fill="#665CD1"/>
</svg>
