<svg width="31" height="32" viewBox="0 0 31 32" fill="none" xmlns="http://www.w3.org/2000/svg">
<path d="M23.6424 28.8318C21.3739 29.2802 17.048 30.0325 13.564 30.0325C8.49712 30.0325 2.47448 28.3942 2.00165 28.6304C1.57605 28.8431 1.06349 28.6649 0.981206 28.2242C2.76669 25.3324 1.45404 29.2946 1.45404 18.8914C1.45404 18.1021 1.65494 16.4541 2.03532 14.1254C2.04556 14.0627 2.04335 13.9985 2.02879 13.9365C2.01424 13.8746 1.98763 13.8162 1.95048 13.7645C1.91333 13.7129 1.86638 13.6691 1.8123 13.6356C1.75822 13.6021 1.69807 13.5796 1.63529 13.5693C1.57251 13.5591 1.50833 13.5613 1.4464 13.5758C1.38448 13.5904 1.32603 13.617 1.27439 13.6542C1.22275 13.6913 1.17893 13.7383 1.14543 13.7923C1.11194 13.8464 1.08942 13.9066 1.07918 13.9693C0.685057 16.3827 0.485243 18.0387 0.485243 18.8914C0.485243 23.9243 0.79665 25.919 0.932766 26.5504L0.0822247 27.8263C-0.121707 28.1323 0.0375391 29.0061 0.742216 29.4416C0.96918 29.5798 1.22516 29.6634 1.48995 29.6858C1.75475 29.7082 2.02112 29.6687 2.26807 29.5706C11.1813 31.5021 15.9323 31.3433 23.8304 29.7825C23.8928 29.7702 23.9522 29.7457 24.0051 29.7104C24.0581 29.6751 24.1035 29.6298 24.139 29.5769C24.1744 29.5241 24.1991 29.4648 24.2116 29.4024C24.2241 29.34 24.2241 29.2757 24.2118 29.2133C24.1995 29.1509 24.175 29.0915 24.1397 29.0386C24.1044 28.9856 24.0591 28.9401 24.0062 28.9047C23.9534 28.8693 23.8941 28.8446 23.8317 28.8321C23.7693 28.8196 23.7051 28.8195 23.6427 28.8319L23.6424 28.8318Z" fill="#665CD1"/>
<path d="M1.45376 12.5945H12.5949C12.7234 12.5945 12.8466 12.5434 12.9374 12.4526C13.0283 12.3617 13.0793 12.2385 13.0793 12.1101C13.0793 11.9816 13.0283 11.8584 12.9374 11.7675C12.8466 11.6767 12.7234 11.6257 12.5949 11.6257H1.45376C1.32529 11.6257 1.20208 11.5746 1.11124 11.4838C1.0204 11.3929 0.969364 11.2697 0.969364 11.1413C0.969364 11.0128 1.0204 10.8896 1.11124 10.7987C1.20208 10.7079 1.32529 10.6569 1.45376 10.6569H5.32894C5.45741 10.6569 5.58062 10.6058 5.67146 10.515C5.7623 10.4242 5.81334 10.3009 5.81334 10.1725C5.81334 10.044 5.7623 9.9208 5.67146 9.82995C5.58062 9.73911 5.45741 9.68808 5.32894 9.68808H1.45376C1.32529 9.68808 1.20208 9.63704 1.11124 9.5462C1.0204 9.45536 0.969364 9.33215 0.969364 9.20368C0.969364 9.07521 1.0204 8.952 1.11124 8.86116C1.20208 8.77032 1.32529 8.71928 1.45376 8.71928H22.2828C22.4113 8.71928 22.5345 8.66825 22.6254 8.57741C22.7162 8.48656 22.7672 8.36336 22.7672 8.23489C22.7672 8.10642 22.7162 7.98321 22.6254 7.89236C22.5345 7.80152 22.4113 7.75049 22.2828 7.75049H1.45376C0.194329 7.75049 -0.459608 9.24504 0.371497 10.1725C-0.459124 11.0994 0.193481 12.5945 1.45376 12.5945Z" fill="#665CD1"/>
<path d="M5.43407 6.62577C8.80203 2.97783 11.6893 0.968795 13.5642 0.968795C15.4391 0.968795 18.3264 2.97783 21.6943 6.62577C21.7815 6.72016 21.9026 6.77607 22.0309 6.78119C22.1593 6.78631 22.2844 6.74023 22.3788 6.65308C22.4732 6.56593 22.5291 6.44485 22.5343 6.31648C22.5394 6.1881 22.4933 6.06296 22.4061 5.96856C19.8923 3.24546 16.3178 0 13.5642 0C10.8106 0 7.23609 3.24546 4.72225 5.96856C4.6791 6.0153 4.64557 6.07008 4.62359 6.12978C4.60161 6.18947 4.5916 6.25291 4.59414 6.31648C4.59926 6.44485 4.65516 6.56593 4.74956 6.65308C4.84395 6.74023 4.9691 6.78631 5.09747 6.78119C5.16103 6.77866 5.22347 6.76362 5.28123 6.73696C5.33898 6.71029 5.39092 6.67251 5.43407 6.62577Z" fill="#665CD1"/>
<path d="M9.20461 9.68799C9.07614 9.68799 8.95293 9.73902 8.86209 9.82986C8.77125 9.92071 8.72021 10.0439 8.72021 10.1724C8.72021 10.3009 8.77125 10.4241 8.86209 10.5149C8.95293 10.6057 9.07614 10.6568 9.20461 10.6568H13.5642C13.6927 10.6568 13.8159 10.6057 13.9067 10.5149C13.9976 10.4241 14.0486 10.3009 14.0486 10.1724C14.0486 10.0439 13.9976 9.92071 13.9067 9.82986C13.8159 9.73902 13.6927 9.68799 13.5642 9.68799H9.20461Z" fill="#665CD1"/>
<path d="M7.26662 10.6568C7.53415 10.6568 7.75102 10.4399 7.75102 10.1724C7.75102 9.90486 7.53415 9.68799 7.26662 9.68799C6.9991 9.68799 6.78223 9.90486 6.78223 10.1724C6.78223 10.4399 6.9991 10.6568 7.26662 10.6568Z" fill="#665CD1"/>
<path d="M11.1421 4.84379C11.4096 4.84379 11.6265 4.62692 11.6265 4.3594C11.6265 4.09187 11.4096 3.875 11.1421 3.875C10.8746 3.875 10.6577 4.09187 10.6577 4.3594C10.6577 4.62692 10.8746 4.84379 11.1421 4.84379Z" fill="#665CD1"/>
<path d="M12.5952 2.90629C12.8628 2.90629 13.0796 2.68942 13.0796 2.4219C13.0796 2.15437 12.8628 1.9375 12.5952 1.9375C12.3277 1.9375 12.1108 2.15437 12.1108 2.4219C12.1108 2.68942 12.3277 2.90629 12.5952 2.90629Z" fill="#665CD1"/>
<path d="M13.564 4.35942C13.8315 4.35942 14.0484 4.14255 14.0484 3.87502C14.0484 3.6075 13.8315 3.39062 13.564 3.39062C13.2965 3.39062 13.0796 3.6075 13.0796 3.87502C13.0796 4.14255 13.2965 4.35942 13.564 4.35942Z" fill="#665CD1"/>
<path d="M15.0171 3.39067C15.2846 3.39067 15.5015 3.1738 15.5015 2.90627C15.5015 2.63875 15.2846 2.42188 15.0171 2.42188C14.7496 2.42188 14.5327 2.63875 14.5327 2.90627C14.5327 3.1738 14.7496 3.39067 15.0171 3.39067Z" fill="#665CD1"/>
<path d="M15.9859 5.32817C16.2534 5.32817 16.4703 5.1113 16.4703 4.84377C16.4703 4.57625 16.2534 4.35938 15.9859 4.35938C15.7183 4.35938 15.5015 4.57625 15.5015 4.84377C15.5015 5.1113 15.7183 5.32817 15.9859 5.32817Z" fill="#665CD1"/>
<path d="M17.9234 6.78129C18.1909 6.78129 18.4078 6.56442 18.4078 6.2969C18.4078 6.02937 18.1909 5.8125 17.9234 5.8125C17.6558 5.8125 17.439 6.02937 17.439 6.2969C17.439 6.56442 17.6558 6.78129 17.9234 6.78129Z" fill="#665CD1"/>
<path d="M14.5327 6.78129C14.8003 6.78129 15.0171 6.56442 15.0171 6.2969C15.0171 6.02937 14.8003 5.8125 14.5327 5.8125C14.2652 5.8125 14.0483 6.02937 14.0483 6.2969C14.0483 6.56442 14.2652 6.78129 14.5327 6.78129Z" fill="#665CD1"/>
<path d="M12.1109 6.78129C12.3784 6.78129 12.5953 6.56442 12.5953 6.2969C12.5953 6.02937 12.3784 5.8125 12.1109 5.8125C11.8433 5.8125 11.6265 6.02937 11.6265 6.2969C11.6265 6.56442 11.8433 6.78129 12.1109 6.78129Z" fill="#665CD1"/>
<path d="M9.20461 6.78129C9.47214 6.78129 9.68901 6.56442 9.68901 6.2969C9.68901 6.02937 9.47214 5.8125 9.20461 5.8125C8.93709 5.8125 8.72021 6.02937 8.72021 6.2969C8.72021 6.56442 8.93709 6.78129 9.20461 6.78129Z" fill="#665CD1"/>
<path d="M31 16.4693C30.9992 16.3548 30.9579 16.2444 30.8834 16.1575C30.809 16.0706 30.7061 16.0128 30.5932 15.9945C30.8468 15.3758 30.9847 14.7158 31 14.0473C30.9992 13.9198 30.9483 13.7978 30.8581 13.7076C30.768 13.6175 30.6459 13.5665 30.5184 13.5657C30.3006 13.5695 30.0832 13.5877 29.8678 13.6202C30.0913 12.9682 30.0971 12.0652 30.0177 11.747C30.048 11.6298 30.0277 11.7302 30.0336 9.20387C30.0336 9.0754 29.9826 8.95219 29.8917 8.86135C29.8009 8.77051 29.6777 8.71947 29.5492 8.71947C29.4207 8.71947 29.2975 8.77051 29.2067 8.86135C29.1159 8.95219 29.0648 9.0754 29.0648 9.20387V11.3505C28.7385 11.3489 28.4131 11.3848 28.095 11.4575C28.0772 10.3223 27.4164 9.38431 27.1272 9.02767V6.78176C27.1272 6.65329 27.0762 6.53008 26.9854 6.43924C26.8945 6.3484 26.7713 6.29736 26.6428 6.29736C26.5144 6.29736 26.3912 6.3484 26.3003 6.43924C26.2095 6.53008 26.1584 6.65329 26.1584 6.78176V9.02755C25.8692 9.38431 25.2078 10.3229 25.1907 11.4586C24.8726 11.3859 24.5472 11.35 24.2208 11.3515V9.20375C24.2208 9.07528 24.1698 8.95207 24.079 8.86123C23.9881 8.77038 23.8649 8.71935 23.7364 8.71935C23.608 8.71935 23.4848 8.77038 23.3939 8.86123C23.3031 8.95207 23.2521 9.07528 23.2521 9.20375C23.2581 11.7216 23.2385 11.6308 23.2674 11.745C23.2059 11.9848 23.1629 12.8807 23.4157 13.6194C22.9772 13.5559 22.4938 13.4594 22.3223 13.8594C22.1272 13.9642 21.9396 14.0823 21.7607 14.2128C21.6569 13.5331 21.2442 12.7294 21.0261 12.4839C20.9986 12.3661 21.0272 12.4643 19.8622 10.2227C19.8027 10.1088 19.7004 10.0232 19.5779 9.9848C19.4553 9.94636 19.3224 9.95819 19.2086 10.0177C19.0947 10.0772 19.0091 10.1795 18.9707 10.3021C18.9323 10.4246 18.9441 10.5575 19.0036 10.6714L19.9979 12.5738C19.708 12.7236 19.4362 12.9061 19.1879 13.1179C18.6464 12.1201 17.6263 11.5949 17.2048 11.4127L16.1646 9.42233C16.1048 9.30905 16.0025 9.22408 15.8802 9.18601C15.7578 9.14795 15.6254 9.15989 15.5119 9.21923C15.3983 9.27857 15.3129 9.38048 15.2743 9.50264C15.2358 9.6248 15.2471 9.75727 15.306 9.87107L16.3462 11.8613C16.2554 12.3114 16.104 13.4493 16.6143 14.4638C16.2987 14.5466 15.9936 14.6656 15.7053 14.8182L14.7106 12.9151C14.6511 12.8012 14.5488 12.7156 14.4262 12.6772C14.3036 12.6388 14.1708 12.6506 14.0569 12.7101C13.9431 12.7696 13.8575 12.8719 13.8191 12.9945C13.7806 13.1171 13.7925 13.2499 13.852 13.3638C15.0316 15.6078 14.9624 15.5185 15.0425 15.6083C15.1025 15.8649 15.4888 16.6759 16.0424 17.2015C15.8362 17.2721 15.6351 17.357 15.4406 17.4553C15.3279 17.515 15.2434 17.6167 15.2052 17.7384C15.1671 17.86 15.1784 17.9918 15.2368 18.1052C15.56 18.6905 15.9878 19.2116 16.4991 19.6425C16.4075 19.7111 16.3432 19.8099 16.3175 19.9214C16.2918 20.0328 16.3064 20.1498 16.3587 20.2516C16.6823 20.8379 17.111 21.3597 17.6232 21.7911C17.5313 21.8595 17.4667 21.9583 17.4408 22.07C17.4149 22.1816 17.4295 22.2988 17.4819 22.4007C17.8046 22.9852 18.2317 23.5057 18.742 23.9363C18.6508 24.005 18.5867 24.1037 18.5612 24.2151C18.5356 24.3264 18.5502 24.4431 18.6024 24.5447C18.6388 24.6154 19.5124 26.2808 21.13 26.7879C22.0705 27.0827 23.1253 26.9375 24.0415 26.5853C26.4004 31.0988 26.2236 30.807 26.3511 30.9031C26.4052 30.9441 26.4673 30.9733 26.5334 30.9887C26.5995 31.0041 26.6681 31.0054 26.7347 30.9926C26.8013 30.9797 26.8645 30.9529 26.9201 30.914C26.9757 30.8751 27.0225 30.8249 27.0574 30.7667C27.2078 30.5174 27.0851 30.5306 27.1272 25.6407C27.7821 25.5651 28.958 25.3128 29.7987 24.4721C30.9976 23.2733 31.0002 21.3929 30.9998 21.3134C30.999 21.1991 30.9579 21.0889 30.8836 21.002C30.8094 20.9152 30.7069 20.8574 30.5941 20.8388C30.8471 20.2209 30.9846 19.5618 30.9998 18.8942C30.999 18.7796 30.9576 18.669 30.8829 18.582C30.8082 18.495 30.7051 18.4374 30.5919 18.4193C30.8463 17.7998 30.9846 17.1388 31 16.4693ZM26.108 17.3908C25.5299 16.7087 24.7163 16.316 23.8475 16.1215C23.5093 15.6043 23.3627 15.0031 23.2998 14.5824C24.9675 14.8324 25.8579 15.7209 26.108 17.3908ZM26.1084 19.8157C25.5317 19.1352 24.7192 18.7414 23.849 18.5462C23.5099 18.0283 23.3628 17.426 23.2998 17.0044C24.9698 17.2547 25.8593 18.1457 26.1084 19.8157ZM26.1075 22.2339C25.5309 21.5535 24.717 21.1597 23.8455 20.9651C23.5082 20.4481 23.3622 19.8476 23.2995 19.4277C24.9974 19.6788 25.8612 20.5971 26.1075 22.234V22.2339ZM19.5356 14.1501C19.7933 13.8082 20.1885 13.5628 20.4732 13.4181C21.04 14.4852 20.7404 14.9242 20.7503 15.1566C20.369 15.6096 20.1055 16.1498 19.9832 16.7292L19.4988 15.802C19.6086 15.2579 19.6211 14.6986 19.5356 14.1501ZM17.2329 12.5122C18.2775 13.1231 18.7069 13.9425 18.6119 15.1509C17.5672 14.5401 17.1379 13.7208 17.2329 12.5122ZM16.1258 15.6914C16.4081 15.54 16.8362 15.3551 17.2645 15.3393C17.6655 15.7217 18.1311 16.0301 18.6396 16.2502L19.126 17.1807C18.5798 16.9494 17.9849 16.8568 17.3942 16.9111C17.2181 16.7771 16.6791 16.7683 16.1258 15.6914ZM18.6307 22.4042C19.1427 22.2273 19.9764 22.0338 20.7513 22.2768C20.8121 22.2961 20.876 22.3032 20.9396 22.2977C21.0031 22.2922 21.0649 22.2742 21.1215 22.2448C21.178 22.2154 21.2282 22.1751 21.2692 22.1262C21.3101 22.0773 21.341 22.0209 21.3601 21.96C21.3792 21.8992 21.386 21.8352 21.3803 21.7717C21.3746 21.7082 21.3564 21.6464 21.3268 21.59C21.2972 21.5335 21.2567 21.4835 21.2077 21.4427C21.1586 21.4019 21.102 21.3712 21.0411 21.3524C20.1995 21.0886 19.3452 21.1972 18.7085 21.3672C18.1671 21.0651 17.7573 20.5982 17.5064 20.2537C18.1599 20.0262 18.9435 19.913 19.6282 20.1281C19.6889 20.1471 19.7528 20.154 19.8161 20.1484C19.8795 20.1428 19.9411 20.1247 19.9975 20.0953C20.0539 20.0658 20.1039 20.0255 20.1447 19.9768C20.1856 19.928 20.2164 19.8716 20.2354 19.8109C20.2545 19.7502 20.2614 19.6864 20.2558 19.623C20.2501 19.5597 20.2321 19.498 20.2026 19.4416C20.1732 19.3853 20.1329 19.3352 20.0841 19.2944C20.0353 19.2536 19.979 19.2228 19.9183 19.2037C19.0759 18.9394 18.2204 19.0483 17.5835 19.2187C17.0436 18.9165 16.6351 18.4509 16.3846 18.1072C16.8943 17.9297 17.7257 17.7365 18.5066 17.9817C19.7332 18.3658 20.4563 19.7308 20.4634 19.7446C20.471 19.7593 20.4793 19.7736 20.4884 19.7875C20.9114 20.4674 20.9353 20.9864 21.4087 20.9864C21.492 20.9861 21.5737 20.9644 21.6461 20.9235C21.7186 20.8825 21.7792 20.8236 21.8223 20.7524C21.8654 20.6812 21.8894 20.6001 21.8921 20.5169C21.8948 20.4337 21.876 20.3513 21.8376 20.2774C21.6868 19.8982 20.4947 18.2732 20.9935 16.6819C21.2502 15.8625 21.9445 15.2681 22.3815 14.9614C22.4483 15.3156 22.5517 15.6619 22.6898 15.9948C22.5768 16.0131 22.4741 16.0709 22.3996 16.1578C22.3252 16.2447 22.284 16.3551 22.2833 16.4695C22.2986 17.139 22.4367 17.8001 22.6909 18.4197C22.5778 18.4378 22.4748 18.4954 22.4002 18.5823C22.3255 18.6692 22.2841 18.7798 22.2833 18.8943C22.2985 19.5618 22.436 20.2209 22.6889 20.8389C22.5762 20.8574 22.4736 20.9153 22.3994 21.0022C22.3251 21.0891 22.284 21.1994 22.2833 21.3137C22.2829 21.3816 22.2856 22.7642 23.0341 23.913C22.0586 23.2787 20.9808 23.2028 19.8249 23.5124C19.2877 23.2107 18.8807 22.7471 18.6307 22.4042ZM19.7503 24.547C20.4224 24.3131 21.1932 24.208 21.8721 24.4211C22.648 24.6644 23.2223 25.3003 23.5415 25.7379C21.9589 26.288 20.7505 25.9185 19.7503 24.547ZM23.2999 21.8488C24.9683 22.0988 25.8576 22.9867 26.108 24.6568C24.4396 24.4066 23.5503 23.5187 23.2999 21.8486V21.8488ZM26.1584 28.5445C24.7207 25.8095 24.6798 25.6212 24.2259 25.0345C24.9264 25.4372 25.6814 25.5863 26.1584 25.6412V28.5445ZM26.1584 15.0298C25.7815 14.5717 25.2971 14.2139 24.7484 13.9883C24.654 13.7875 24.1808 13.5306 24.1891 12.3199C24.5091 12.317 24.9744 12.3509 25.3614 12.5353C25.5397 13.0601 25.8096 13.5491 26.1584 13.9797V15.0298ZM26.6428 12.9923C25.9999 11.9673 25.9991 11.0419 26.6428 10.0152C27.2857 11.0402 27.2867 11.9654 26.6428 12.9922V12.9923ZM27.1272 13.9798C27.4766 13.5486 27.7467 13.0589 27.925 12.5333C28.311 12.3503 28.7737 12.3165 29.0936 12.3188C29.1054 13.5431 28.6395 13.7666 28.5354 13.9883C27.9877 14.2129 27.504 14.5694 27.1272 15.026V13.9798ZM27.1751 24.6567C27.4251 22.9885 28.313 22.0989 29.9831 21.8487C29.7332 23.5167 28.8452 24.4064 27.1751 24.6566V24.6567ZM29.4377 20.9645C28.5629 21.1601 27.7505 21.5557 27.1757 22.2338C27.4219 20.5973 28.283 19.6842 29.9834 19.4294C29.9206 19.8491 29.7744 20.4483 29.4377 20.9644V20.9645ZM29.4336 18.5464C28.572 18.7397 27.7548 19.1306 27.1751 19.8153C27.4216 18.1634 28.2941 17.2576 29.9837 17.0045C29.9203 17.426 29.7733 18.0285 29.4336 18.5466V18.5464ZM29.4349 16.1222C28.5623 16.3174 27.751 16.7111 27.1753 17.3904C27.4252 15.7223 28.3136 14.8326 29.9834 14.5825C29.9204 15.0034 29.7736 15.6049 29.4349 16.122V16.1222Z" fill="#665CD1"/>
</svg>
