<svg width="39" height="25" viewBox="0 0 39 25" fill="none" xmlns="http://www.w3.org/2000/svg">
<path d="M38.1144 23.0131H37.4698V10.2561C37.4698 9.94315 37.2161 9.68945 36.9032 9.68945C36.5903 9.68945 36.3366 9.94315 36.3366 10.2561V23.0131H33.8362V13.8899C33.8362 13.577 33.5825 13.3233 33.2696 13.3233H21.1573C20.8444 13.3233 20.5907 13.577 20.5907 13.8899V23.0131H18.0903V13.8899C18.0903 13.577 17.8366 13.3233 17.5236 13.3233H5.41153C5.09861 13.3233 4.84491 13.577 4.84491 13.8899V23.0131H2.34453V22.3684C2.34453 22.0555 2.09083 21.8018 1.77791 21.8018C1.46498 21.8018 1.21128 22.0555 1.21128 22.3684V23.0131H0.566621C0.253695 23.0131 0 23.2668 0 23.5797C0 23.8926 0.253695 24.1463 0.566621 24.1463H38.1144C38.4273 24.1463 38.681 23.8926 38.681 23.5797C38.681 23.2668 38.4273 23.0131 38.1144 23.0131ZM16.9572 23.013H5.97816V21.7238H16.9572V23.013ZM16.9572 20.5906H5.97816V19.3015H16.9572V20.5906ZM16.9572 18.1682H5.97816V16.879H16.9572V18.1682ZM16.9572 15.7457H5.97816V14.4566H16.9572V15.7457ZM32.703 23.013H21.724V21.7238H32.703V23.013ZM32.703 20.5906H21.724V19.3015H32.703V20.5906ZM32.703 18.1682H21.724V16.879H32.703V18.1682ZM32.703 15.7457H21.724V14.4566H32.703V15.7457Z" fill="#665CD1"/>
<path d="M17.524 8.47852H5.41184C5.09891 8.47852 4.84521 8.73221 4.84521 9.04514V11.4676C4.84521 11.7805 5.09891 12.0342 5.41184 12.0342H17.5241C17.837 12.0342 18.0907 11.7805 18.0907 11.4676V9.04514C18.0906 8.73221 17.8369 8.47852 17.524 8.47852ZM8.47884 10.9009H5.97846V9.61176H8.47892V10.9009H8.47884ZM13.3238 10.9009H9.61208V9.61176H13.3238V10.9009ZM16.9575 10.9009H14.457V9.61176H16.9575V10.9009Z" fill="#665CD1"/>
<path d="M33.2697 8.47852H21.1574C20.8445 8.47852 20.5908 8.73221 20.5908 9.04514V11.4676C20.5908 11.7805 20.8445 12.0342 21.1574 12.0342H33.2697C33.5826 12.0342 33.8363 11.7805 33.8363 11.4676V9.04514C33.8363 8.73221 33.5826 8.47852 33.2697 8.47852ZM24.2245 10.9009H21.7241V9.61176H24.2245V10.9009ZM29.0694 10.9009H25.3577V9.61176H29.0694V10.9009ZM32.7031 10.9009H30.2026V9.61176H32.7031V10.9009Z" fill="#665CD1"/>
<path d="M38.2885 6.08349L19.5146 0.0273678C19.4015 -0.0091226 19.2798 -0.0091226 19.1667 0.0273678L0.392809 6.08349C0.0949929 6.17951 -0.0685718 6.49886 0.0275272 6.79668C0.123626 7.09449 0.442747 7.25806 0.74079 7.16196L1.21146 7.0101V19.9461C1.21146 20.2591 1.46516 20.5128 1.77808 20.5128C2.09101 20.5128 2.34471 20.2591 2.34471 19.9461V6.6446L19.3407 1.16197L36.3368 6.6446V7.8342C36.3368 8.14712 36.5905 8.40082 36.9034 8.40082C37.2163 8.40082 37.47 8.14712 37.47 7.8342V7.01018L37.9406 7.16196C37.9985 7.18062 38.057 7.18946 38.1147 7.18946C38.3539 7.18946 38.5764 7.03662 38.6538 6.79668C38.7499 6.49886 38.5863 6.17951 38.2885 6.08349Z" fill="#665CD1"/>
</svg>
