<svg width="36" height="21" viewBox="0 0 36 21" fill="none" xmlns="http://www.w3.org/2000/svg">
<path d="M34.9588 19.9939L29.6734 16.0299C29.2645 15.7232 28.7263 15.6747 28.2692 15.9033C28.2235 15.9261 28.1799 15.9519 28.1377 15.9792L24.1536 12.9912V12.1122H27.1102C27.9035 12.1122 28.574 11.5442 28.7044 10.7617L30.131 2.20212H30.2452C30.5297 2.20212 30.7603 1.97149 30.7603 1.68701C30.7603 1.40253 30.5297 1.1719 30.2452 1.1719H24.1891C23.7678 1.1719 23.3746 1.29312 23.0416 1.50191C22.9494 0.697655 22.2649 0.0708008 21.4363 0.0708008H3.62951C2.90376 0.0708008 2.22134 0.353425 1.70802 0.86668L0.150876 2.42389C-0.0502919 2.62506 -0.0502919 2.95123 0.150876 3.15232L1.80252 4.80397C1.90307 4.90452 2.03494 4.95486 2.16674 4.95486C2.29854 4.95486 2.43041 4.90459 2.53096 4.80397L4.03178 3.30315H11.0112V4.47513H6.5712C5.98357 4.47513 5.50554 4.95315 5.50554 5.54078V11.0818H5.4701C4.88247 11.0818 4.40445 11.5598 4.40445 12.1474V16.0207C3.73686 16.5163 3.30335 17.3101 3.30335 18.2036C3.30335 19.7019 4.52237 20.9209 6.02065 20.9209C7.34284 20.9209 8.44696 19.9715 8.68837 18.7187H17.9778C18.5876 20.0183 19.9082 20.9209 21.4362 20.9209C23.2702 20.9209 24.8059 19.6211 25.1716 17.8943L27.5279 19.0724V19.5799C27.5279 20.3193 28.1294 20.9209 28.8688 20.9209H34.6497C34.8714 20.9209 35.0682 20.779 35.1384 20.5687C35.2085 20.3586 35.1362 20.127 34.9588 19.9939ZM27.9737 8.87972H25.2902C25.2706 8.87972 25.2548 8.86386 25.2548 8.84429V4.40438H28.7196L27.9737 8.87972ZM23.0525 3.33873C23.0525 2.71201 23.5623 2.20212 24.1891 2.20212H29.0866L28.8913 3.37416H24.7397C24.4552 3.37416 24.2246 3.6048 24.2246 3.88927V8.84429C24.2246 9.43192 24.7026 9.90994 25.2902 9.90994H27.802L27.6882 10.5923C27.641 10.876 27.3978 11.0819 27.1102 11.0819H23.0525V3.33873ZM3.81846 2.27307C3.68185 2.27307 3.55081 2.32733 3.45424 2.42396L2.16681 3.71139L1.2436 2.78818L2.43659 1.59518C2.75527 1.2765 3.17897 1.10102 3.62958 1.10102H11.0112V2.27307H3.81846ZM6.02065 19.8909C5.09037 19.8909 4.33357 19.134 4.33357 18.2038C4.33357 17.2735 5.09043 16.5167 6.02065 16.5167C6.95087 16.5167 7.70774 17.2735 7.70774 18.2038C7.70774 19.134 6.95094 19.8909 6.02065 19.8909ZM17.6629 17.6886H8.68844C8.44696 16.4359 7.34291 15.4865 6.02072 15.4865C5.81949 15.4865 5.62361 15.5091 5.43473 15.5508V12.1476C5.43473 12.1281 5.4506 12.1122 5.47017 12.1122H7.12182C7.4063 12.1122 7.63693 11.8816 7.63693 11.5971C7.63693 11.3126 7.4063 11.082 7.12182 11.082H6.53583V5.54099C6.53583 5.52142 6.5517 5.50555 6.57127 5.50555H19.2342C19.5187 5.50555 19.7493 5.27492 19.7493 4.99044C19.7493 4.70596 19.5187 4.47533 19.2342 4.47533H12.0414V1.10102H21.4363C21.7595 1.10102 22.0223 1.36393 22.0223 1.68701V3.33873V4.47526H21.436C21.1516 4.47526 20.9209 4.70589 20.9209 4.99037C20.9209 5.27485 21.1516 5.50548 21.436 5.50548H22.0223V11.0819H9.32415C9.03968 11.0819 8.80905 11.3126 8.80905 11.597C8.80905 11.8815 9.03968 12.1121 9.32415 12.1121H23.1234V13.6783C22.6143 13.4264 22.0417 13.2842 21.4363 13.2842C19.3308 13.2842 17.6178 14.9971 17.6178 17.1027C17.6178 17.3019 17.6333 17.4976 17.6629 17.6886ZM21.4363 19.8909C19.8989 19.8909 18.6481 18.6401 18.6481 17.1027C18.6481 15.5652 19.8988 14.3144 21.4363 14.3144C22.9738 14.3144 24.2246 15.5652 24.2246 17.1027C24.2246 18.6402 22.9737 19.8909 21.4363 19.8909ZM27.5279 17.1027V17.9209L25.2399 16.7769C25.1623 15.8634 24.7623 15.0406 24.1536 14.4233V14.279L27.5556 16.8304C27.5375 16.9187 27.5279 17.0098 27.5279 17.1027ZM28.8689 19.8909C28.6975 19.8909 28.5581 19.7515 28.5581 19.5802V17.1027C28.5581 16.9294 28.6783 16.8506 28.7299 16.8248C28.7576 16.8109 28.8092 16.7905 28.8725 16.7905C28.9273 16.7905 28.991 16.8058 29.0553 16.8541L33.1044 19.8909H28.8689Z" fill="#665CD1"/>
</svg>
