<svg width="37" height="37" viewBox="0 0 37 37" fill="none" xmlns="http://www.w3.org/2000/svg">
<g clip-path="url(#clip0_49_6333)">
<path d="M12.3709 16.5411V11.1099C12.3709 10.6116 11.9658 10.2065 11.4679 10.2065H4.94531C4.44707 10.2065 4.04199 10.6116 4.04199 11.1099V16.5411C4.04199 17.0393 4.44707 17.4444 4.94531 17.4444H11.4679C11.9658 17.4444 12.3709 17.0393 12.3709 16.5411ZM11.2869 16.3604H5.12598V11.2905H11.2869V16.3604Z" fill="#665CD1"/>
<path d="M36.9108 31.8804L35.7111 29.4327C35.5795 29.164 35.2549 29.0528 34.9859 29.1846C34.7171 29.3164 34.6059 29.6408 34.7378 29.9098L35.7139 31.9013H32.1918C32.3154 31.5135 32.3829 31.1005 32.3829 30.6714C32.3829 28.4639 30.6158 26.668 28.4439 26.668C27.1835 26.668 26.0605 27.2732 25.339 28.2121H23.1541C22.4328 27.2732 21.3096 26.668 20.0492 26.668C18.7891 26.668 17.6661 27.2732 16.9446 28.2121H15.2328C15.1916 27.4042 14.9957 26.6375 14.6767 25.9405H32.7578C32.773 25.9453 32.7967 25.9603 32.8078 25.9719L33.6049 27.5981C33.7368 27.8669 34.0614 27.9781 34.3301 27.8463C34.5989 27.7147 34.7101 27.3901 34.5783 27.1211L33.7763 25.4846C33.6614 25.2503 33.4446 25.0578 33.1967 24.95C33.6795 23.5007 33.9248 21.9913 33.9248 20.4503C33.9248 18.598 33.5719 16.7908 32.8761 15.0792C32.7931 14.8751 32.5946 14.7416 32.3742 14.7416H29.9648C29.6656 14.7416 29.4228 14.9841 29.4228 15.2836V15.9015H27.8124L28.893 12.3543C28.9774 12.0768 29.0412 11.6483 29.0412 11.3578V9.19213C29.0412 8.65692 28.6093 8.22135 28.078 8.22135H22.0718C21.5408 8.22135 21.1089 8.65663 21.1089 9.19213V11.3578C21.1089 11.6483 21.1724 12.0768 21.2571 12.3543L22.3374 15.9015H20.7467V14.6403C20.7467 13.9159 20.1635 13.3262 19.4468 13.3262H17.4259C16.7092 13.3262 16.126 13.9157 16.126 14.6403V15.9015H14.8116V9.06962H15.51C16.008 9.06962 16.4131 8.66425 16.4131 8.1663V5.60284C16.4131 5.30955 16.2702 5.03347 16.0306 4.86466C13.7296 3.24236 11.0245 2.38477 8.20667 2.38477C5.38887 2.38477 2.68343 3.24236 0.382782 4.86438C0.14312 5.03347 0 5.30955 0 5.60284V8.1663C0 8.66425 0.405083 9.06962 0.90332 9.06962H1.60142V24.8597C1.13113 24.8904 0.757942 25.282 0.757942 25.7599V28.3928C0.757942 28.8907 1.16303 29.2961 1.66126 29.2961H3.16275C3.25082 30.0168 3.4631 30.72 3.78943 31.3624C3.92521 31.6295 4.25125 31.7356 4.51801 31.6001C4.78506 31.4646 4.89148 31.1383 4.7557 30.8715C4.38675 30.1452 4.19959 29.3588 4.19959 28.5345C4.19959 25.7316 6.43305 23.4516 9.1783 23.4516C11.9235 23.4516 14.157 25.7316 14.157 28.5345C14.157 31.3373 11.9235 33.6174 9.1783 33.6174C8.1169 33.6174 7.10405 33.2811 6.249 32.6452C6.00906 32.4665 5.66947 32.5161 5.49078 32.7564C5.31209 32.9963 5.36177 33.3359 5.602 33.5146C6.64533 34.2909 7.88204 34.7013 9.1783 34.7013C12.2677 34.7013 14.8229 32.3383 15.193 29.2961H16.3495C16.1948 29.7252 16.1102 30.1884 16.1102 30.6714C16.1102 32.8789 17.8773 34.6748 20.0492 34.6748C22.2214 34.6748 23.9885 32.8789 23.9885 30.6714C23.9885 30.1884 23.9038 29.7252 23.7491 29.2961H24.7439C24.5892 29.7252 24.5045 30.1884 24.5045 30.6714C24.5045 32.8789 26.2717 34.6748 28.4439 34.6748C29.7678 34.6748 30.9407 34.0066 31.6552 32.9853H36.2217C36.5074 32.9853 36.7513 32.8577 36.8902 32.6347C37.0291 32.4123 37.0367 32.137 36.9108 31.8804ZM30.5068 15.8256H32.0041C33.1016 18.749 33.1276 21.921 32.0834 24.8566H30.5068V15.8256ZM18.9023 24.8566H14.8116V21.6142H18.9023V24.8566ZM24.0278 24.8566H19.9862V21.6142H24.0278V24.8566ZM29.4228 16.9855V24.8566H25.1117V21.5865C25.7667 21.4561 26.2621 20.8715 26.2621 20.1711C26.2621 19.4711 25.7667 18.8865 25.1117 18.756V16.9855H29.4228ZM22.1926 9.30533H27.9572V10.8159H22.1926V9.30533ZM22.2939 12.0387C22.2818 11.9992 22.2702 11.9515 22.2592 11.8998H27.8906C27.8796 11.9515 27.868 11.9992 27.8559 12.0387L26.6793 15.9015H23.4705L22.2939 12.0387ZM19.9862 16.9855H24.0278V18.7284H19.9862V16.9855ZM17.2099 14.6403C17.2099 14.5135 17.3068 14.4102 17.4256 14.4102H19.4468C19.5656 14.4102 19.6625 14.5135 19.6625 14.6403V15.9015H17.2097V14.6403H17.2099ZM18.9023 16.9855V18.7284H14.8116V16.9855H18.9023ZM3.12408 28.2121H1.84193V25.9405H3.68018C3.36092 26.6375 3.16529 27.4042 3.12408 28.2121ZM13.7276 24.4645C12.6157 23.18 10.9889 22.3676 9.1783 22.3676C7.1893 22.3676 5.42133 23.3472 4.31505 24.8566H2.6854V9.06962H9.75558C10.0551 9.06962 10.2976 8.82685 10.2976 8.52763C10.2976 8.22812 10.0551 7.98563 9.75558 7.98563H1.08398V5.69685C3.1842 4.23883 5.64491 3.46875 8.20667 3.46875C10.7684 3.46875 13.2288 4.23883 15.3291 5.69685V7.98563H12.3571C12.0579 7.98563 11.8152 8.22812 11.8152 8.52763C11.8152 8.82685 12.0579 9.06962 12.3571 9.06962H13.7276V18.7284H13.1312C12.3447 18.7284 11.7051 19.3757 11.7051 20.1711C11.7051 20.9669 12.3447 21.6142 13.1312 21.6142H13.7276V24.4645ZM13.1312 20.5302C12.9423 20.5302 12.789 20.3693 12.789 20.1711C12.789 19.9735 12.9423 19.8124 13.1312 19.8124H24.836C25.0248 19.8124 25.1781 19.9735 25.1781 20.1711C25.1781 20.3693 25.0248 20.5302 24.836 20.5302H13.1312ZM20.0495 33.5908C18.4749 33.5908 17.1941 32.281 17.1941 30.6714C17.1941 29.0618 18.4749 27.752 20.0495 27.752C21.6238 27.752 22.9045 29.0618 22.9045 30.6714C22.9045 32.281 21.6238 33.5908 20.0495 33.5908ZM28.4439 33.5908C26.8696 33.5908 25.5885 32.281 25.5885 30.6714C25.5885 29.0618 26.8696 27.752 28.4439 27.752C30.0182 27.752 31.2989 29.0618 31.2989 30.6714C31.2989 32.281 30.0182 33.5908 28.4439 33.5908Z" fill="#665CD1"/>
<path d="M9.17852 31.5532C10.8166 31.5532 12.149 30.1991 12.149 28.5344C12.149 26.8698 10.8166 25.5156 9.17852 25.5156C7.54069 25.5156 6.20801 26.8698 6.20801 28.5344C6.20801 30.1991 7.54069 31.5532 9.17852 31.5532ZM9.17852 26.5993C10.2188 26.5993 11.0653 27.4674 11.0653 28.5344C11.0653 29.6012 10.2188 30.4692 9.17852 30.4692C8.13829 30.4692 7.29199 29.6012 7.29199 28.5344C7.29199 27.4674 8.13829 26.5993 9.17852 26.5993Z" fill="#665CD1"/>
<path d="M28.4439 28.813C27.4324 28.813 26.6099 29.6469 26.6099 30.6716C26.6099 31.6963 27.4324 32.5299 28.4439 32.5299C29.455 32.5299 30.2779 31.6963 30.2779 30.6716C30.2779 29.6469 29.455 28.813 28.4439 28.813ZM28.4439 31.4459C28.0303 31.4459 27.6938 31.0984 27.6938 30.6716C27.6938 30.2445 28.0303 29.897 28.4439 29.897C28.8574 29.897 29.1939 30.2445 29.1939 30.6716C29.1939 31.0984 28.8574 31.4459 28.4439 31.4459Z" fill="#665CD1"/>
<path d="M20.0494 28.813C19.0379 28.813 18.2153 29.6469 18.2153 30.6716C18.2153 31.6963 19.0379 32.5299 20.0494 32.5299C21.0605 32.5299 21.8834 31.6963 21.8834 30.6716C21.8831 29.6469 21.0605 28.813 20.0494 28.813ZM20.0494 31.4459C19.6358 31.4459 19.2993 31.0984 19.2993 30.6716C19.2993 30.2445 19.6355 29.897 20.0494 29.897C20.4629 29.897 20.7994 30.2445 20.7994 30.6716C20.7994 31.0984 20.4629 31.4459 20.0494 31.4459Z" fill="#665CD1"/>
</g>
<defs>
<clipPath id="clip0_49_6333">
<rect width="37" height="37" fill="white"/>
</clipPath>
</defs>
</svg>
