<svg width="39" height="27" viewBox="0 0 39 27" fill="none" xmlns="http://www.w3.org/2000/svg">
<path d="M38.3717 17.7876L36.6897 14.0032C36.3076 13.1434 35.4526 12.5878 34.5117 12.5878H31.4532C30.8068 12.5878 30.2809 13.1136 30.2809 13.7601V19.8162C30.2809 20.1291 30.5346 20.3828 30.8476 20.3828C31.1605 20.3828 31.4142 20.1291 31.4142 19.8162V13.7601C31.4142 13.7385 31.4316 13.7211 31.4532 13.7211H32.7034V18.605C32.7034 19.5853 33.5009 20.3828 34.4812 20.3828H37.5483V21.672H28.9917V12.5488C28.9917 11.5685 28.1941 10.771 27.2138 10.771H21.5501C21.2372 10.771 20.9835 11.0247 20.9835 11.3376C20.9835 11.6505 21.2372 11.9042 21.5501 11.9042H27.2138C27.5693 11.9042 27.8584 12.1934 27.8584 12.5488V21.6721H1.77784C1.42238 21.6721 1.13325 21.3829 1.13325 21.0275V12.5488C1.13325 12.1934 1.42245 11.9042 1.77784 11.9042H7.44212C7.75505 11.9042 8.00874 11.6505 8.00874 11.3376C8.00874 11.0247 7.75505 10.771 7.44212 10.771H1.77784C0.79758 10.7709 0 11.5685 0 12.5488V21.0275C0 22.0078 0.79758 22.8053 1.77784 22.8053H4.59464C4.36958 23.169 4.23933 23.5973 4.23933 24.0555C4.23933 25.3698 5.30851 26.4391 6.62278 26.4391C7.35017 26.4391 8.00209 26.1112 8.4396 25.5958C8.87719 26.1112 9.52911 26.4391 10.2565 26.4391C11.5708 26.4391 12.64 25.3698 12.64 24.0555C12.64 23.5973 12.5096 23.169 12.2846 22.8053H19.3798V24.0555C19.3798 24.7019 19.9056 25.2278 20.552 25.2278H22.1116C22.5216 25.9503 23.2974 26.4391 24.1856 26.4391C25.0739 26.4391 25.8497 25.9503 26.2596 25.2278H31.1958C31.6058 25.9503 32.3816 26.4391 33.2698 26.4391C34.1581 26.4391 34.9339 25.9503 35.3438 25.2278H37.5091C38.1555 25.2278 38.6813 24.7019 38.6813 24.0555V19.2476C38.6815 18.7414 38.5773 18.2501 38.3717 17.7876ZM34.4812 19.2496C34.1257 19.2496 33.8366 18.9604 33.8366 18.605V13.7211H34.5117C35.0053 13.7211 35.4538 14.0125 35.6542 14.4635L37.3362 18.2479C37.4769 18.5646 37.5483 18.901 37.5483 19.2476V19.2496H34.4812ZM6.62278 25.3058C5.93339 25.3058 5.37258 24.7449 5.37258 24.0555C5.37258 23.3661 5.93339 22.8053 6.62278 22.8053C7.31217 22.8053 7.87298 23.3661 7.87298 24.0555C7.87298 24.7449 7.31217 25.3058 6.62278 25.3058ZM11.5068 24.0555C11.5068 24.7449 10.946 25.3058 10.2566 25.3058C9.56719 25.3058 9.0063 24.7449 9.0063 24.0555C9.0063 23.3661 9.56719 22.8053 10.2566 22.8053C10.946 22.8053 11.5068 23.3661 11.5068 24.0555ZM20.552 24.0945C20.5305 24.0945 20.513 24.077 20.513 24.0555V22.8053H22.1576C21.9325 23.169 21.8023 23.5973 21.8023 24.0555C21.8023 24.0685 21.803 24.0814 21.8032 24.0945H20.552ZM24.1857 25.3058C23.4963 25.3058 22.9355 24.7449 22.9355 24.0555C22.9355 23.3661 23.4963 22.8053 24.1857 22.8053C24.8751 22.8053 25.4359 23.3661 25.4359 24.0555C25.4359 24.7449 24.8751 25.3058 24.1857 25.3058ZM26.5682 24.0945C26.5684 24.0814 26.5692 24.0686 26.5692 24.0555C26.5692 23.5973 26.4388 23.169 26.2138 22.8053H31.2418C31.0168 23.169 30.8865 23.5973 30.8865 24.0555C30.8865 24.0685 30.8873 24.0814 30.8875 24.0945H26.5682ZM33.27 25.3058C32.5806 25.3058 32.0198 24.7449 32.0198 24.0555C32.0198 23.3661 32.5806 22.8053 33.27 22.8053C33.9594 22.8053 34.5202 23.3661 34.5202 24.0555C34.5202 24.7449 33.9594 25.3058 33.27 25.3058ZM37.5093 24.0945H35.6524C35.6527 24.0814 35.6534 24.0686 35.6534 24.0555C35.6534 23.5973 35.5231 23.169 35.2981 22.8053H37.5483V24.0555C37.5483 24.077 37.5308 24.0945 37.5093 24.0945Z" fill="#665CD1"/>
<path d="M14.3161 0.795802C11.3322 0.795801 8.90457 3.22345 8.90456 6.20736C8.90456 7.52783 9.4761 9.24817 10.6032 11.3207C10.7527 11.5957 11.0968 11.6972 11.3717 11.5478C11.6466 11.3983 11.7483 11.0543 11.5988 10.7793C10.5776 8.90162 10.0378 7.32059 10.0378 6.20736C10.0378 3.84832 11.9571 1.92905 14.3161 1.92905C16.6752 1.92905 18.5944 3.84832 18.5944 6.20736C18.5944 8.97249 15.4897 13.3929 14.3157 14.9653C13.9834 14.5207 13.497 13.8489 12.9727 13.0535C12.8004 12.7923 12.4489 12.72 12.1877 12.8923C11.9265 13.0646 11.8543 13.416 12.0265 13.6773C13.0084 15.1666 13.8387 16.2076 13.8736 16.2512C13.9811 16.3856 14.1439 16.4639 14.316 16.4639C14.4881 16.4639 14.6509 16.3856 14.7584 16.2512C14.9613 15.9976 19.7275 9.99627 19.7275 6.20737C19.7277 3.22345 17.3 0.795802 14.3161 0.795802Z" fill="#665CD1"/>
<circle cx="14.3119" cy="6.21132" r="1.54726" fill="#665CD1"/>
</svg>
