<svg width="38" height="38" viewBox="0 0 38 38" fill="none" xmlns="http://www.w3.org/2000/svg">
<circle cx="19" cy="19" r="19" fill="#665CD1"/>
<path d="M24.4935 13.8876C24.427 13.6091 24.121 13.4196 23.8435 13.5181C23.8435 13.5181 11.823 17.7606 11.821 17.7621C11.6365 17.8306 11.501 18.0066 11.491 18.2081C11.482 18.4016 11.6015 18.6031 11.778 18.6851L16.434 20.8586C16.434 20.8586 18.7025 18.5901 18.7065 18.5861C19.1565 18.1361 19.875 18.8321 19.4135 19.2931L17.141 21.5656C17.141 21.5656 19.3115 26.2166 19.3155 26.2241C19.404 26.3941 19.577 26.5021 19.767 26.5106C19.9735 26.5201 20.1645 26.3621 20.2385 26.1771C20.2385 26.1771 24.4785 14.1636 24.481 14.1561C24.5125 14.0696 24.5145 13.9761 24.4935 13.8876Z" fill="white"/>
</svg>
