<svg width="30" height="30" viewBox="0 0 30 30" fill="none" xmlns="http://www.w3.org/2000/svg">
<path d="M28.259 4.2387C25.9376 1.91727 22.1603 1.91727 19.839 4.2387L5.80558 18.2721C5.13081 18.9468 4.75921 19.8439 4.75915 20.7981C4.75915 21.7524 5.13075 22.6495 5.80552 23.3242C7.19836 24.7171 9.46477 24.7171 10.8576 23.3242L22.0843 12.0974L20.4003 10.4135L9.17356 21.6401C8.70932 22.1043 7.95387 22.1045 7.48951 21.6401C7.26463 21.4152 7.1407 21.1161 7.1407 20.7981C7.1407 20.48 7.26463 20.1811 7.48957 19.9561L21.5229 5.9227C22.9159 4.52986 25.1821 4.52986 26.5751 5.9227C27.9679 7.31553 27.9679 9.58189 26.5751 10.9748L12.5415 25.0082C10.2202 27.3295 6.44302 27.3296 4.12147 25.0082C1.80009 22.6867 1.80009 18.9095 4.12147 16.5881L18.155 2.5546L16.471 0.870605L2.43748 14.9041C-0.812493 18.1541 -0.812493 23.4422 2.43748 26.6922C4.06247 28.3171 6.19699 29.1297 8.33157 29.1297C10.4661 29.1297 12.6006 28.3171 14.2255 26.6922L28.259 12.6587C30.5804 10.3373 30.5804 6.56008 28.259 4.2387Z" fill="black"/>
</svg>
