<svg width="194" height="23" viewBox="0 0 194 23" fill="none" xmlns="http://www.w3.org/2000/svg">
<path d="M161.703 16.126C161.19 16.126 160.672 16.0187 160.149 15.804C159.626 15.58 159.192 15.2907 158.847 14.936L159.281 14.026C159.636 14.39 160.023 14.6607 160.443 14.838C160.863 15.0153 161.288 15.104 161.717 15.104C162.66 15.104 163.383 14.768 163.887 14.096C164.4 13.4147 164.657 12.3973 164.657 11.044V9.742H164.797C164.741 10.2647 164.578 10.722 164.307 11.114C164.046 11.506 163.705 11.8047 163.285 12.01C162.874 12.2153 162.412 12.318 161.899 12.318C161.302 12.318 160.77 12.1873 160.303 11.926C159.846 11.6647 159.486 11.296 159.225 10.82C158.964 10.344 158.833 9.80733 158.833 9.21C158.833 8.58467 158.968 8.034 159.239 7.558C159.519 7.07267 159.897 6.69467 160.373 6.424C160.858 6.144 161.414 6.004 162.039 6.004C163.243 6.004 164.167 6.424 164.811 7.264C165.464 8.104 165.791 9.28933 165.791 10.82C165.791 11.9493 165.628 12.9107 165.301 13.704C164.974 14.4973 164.508 15.0993 163.901 15.51C163.294 15.9207 162.562 16.126 161.703 16.126ZM162.137 11.352C162.566 11.352 162.944 11.2587 163.271 11.072C163.598 10.8853 163.85 10.6287 164.027 10.302C164.214 9.97533 164.307 9.59733 164.307 9.168C164.307 8.72933 164.214 8.34667 164.027 8.02C163.85 7.69333 163.598 7.43667 163.271 7.25C162.944 7.06333 162.566 6.97 162.137 6.97C161.708 6.97 161.325 7.06333 160.989 7.25C160.662 7.43667 160.406 7.69333 160.219 8.02C160.042 8.34667 159.953 8.72933 159.953 9.168C159.953 9.59733 160.042 9.97533 160.219 10.302C160.406 10.6287 160.662 10.8853 160.989 11.072C161.325 11.2587 161.708 11.352 162.137 11.352ZM171.399 16.126C170.737 16.126 170.102 16.0233 169.495 15.818C168.889 15.6127 168.38 15.3187 167.969 14.936L168.403 14.04C168.861 14.4133 169.332 14.684 169.817 14.852C170.303 15.02 170.825 15.104 171.385 15.104C172.123 15.104 172.683 14.95 173.065 14.642C173.448 14.3247 173.639 13.8627 173.639 13.256C173.639 12.6773 173.443 12.2387 173.051 11.94C172.659 11.632 172.085 11.478 171.329 11.478H169.845V10.512H171.231C171.885 10.512 172.403 10.344 172.785 10.008C173.168 9.672 173.359 9.21467 173.359 8.636C173.359 8.11333 173.182 7.71667 172.827 7.446C172.482 7.166 171.983 7.026 171.329 7.026C170.265 7.026 169.346 7.404 168.571 8.16L168.137 7.25C168.52 6.858 169.001 6.55467 169.579 6.34C170.158 6.116 170.765 6.004 171.399 6.004C172.37 6.004 173.131 6.228 173.681 6.676C174.232 7.124 174.507 7.74467 174.507 8.538C174.507 9.14467 174.335 9.66733 173.989 10.106C173.644 10.5353 173.177 10.8293 172.589 10.988V10.834C173.289 10.946 173.831 11.226 174.213 11.674C174.596 12.1127 174.787 12.668 174.787 13.34C174.787 14.1987 174.484 14.88 173.877 15.384C173.28 15.8787 172.454 16.126 171.399 16.126ZM180.872 16.126C179.677 16.126 178.753 15.706 178.1 14.866C177.456 14.0167 177.134 12.8313 177.134 11.31C177.134 10.1713 177.297 9.21 177.624 8.426C177.951 7.63267 178.417 7.03067 179.024 6.62C179.631 6.20933 180.363 6.004 181.222 6.004C181.735 6.004 182.253 6.11133 182.776 6.326C183.299 6.53133 183.728 6.82067 184.064 7.194L183.644 8.09C183.289 7.726 182.902 7.46 182.482 7.292C182.062 7.11467 181.637 7.026 181.208 7.026C180.256 7.026 179.523 7.36667 179.01 8.048C178.506 8.72 178.254 9.73267 178.254 11.086V12.388H178.128C178.193 11.856 178.352 11.3987 178.604 11.016C178.865 10.624 179.206 10.3253 179.626 10.12C180.046 9.91467 180.513 9.812 181.026 9.812C181.623 9.812 182.151 9.94267 182.608 10.204C183.065 10.4653 183.425 10.834 183.686 11.31C183.947 11.7767 184.078 12.3133 184.078 12.92C184.078 13.536 183.943 14.0867 183.672 14.572C183.401 15.0573 183.023 15.44 182.538 15.72C182.053 15.9907 181.497 16.126 180.872 16.126ZM180.788 15.146C181.217 15.146 181.595 15.0573 181.922 14.88C182.258 14.6933 182.515 14.4367 182.692 14.11C182.879 13.774 182.972 13.3913 182.972 12.962C182.972 12.5327 182.879 12.1547 182.692 11.828C182.515 11.5013 182.258 11.2447 181.922 11.058C181.595 10.8713 181.217 10.778 180.788 10.778C180.359 10.778 179.981 10.8713 179.654 11.058C179.327 11.2447 179.071 11.5013 178.884 11.828C178.707 12.1547 178.618 12.5327 178.618 12.962C178.618 13.3913 178.707 13.774 178.884 14.11C179.071 14.4367 179.327 14.6933 179.654 14.88C179.981 15.0573 180.359 15.146 180.788 15.146ZM186.649 16V15.132L190.149 11.478C190.606 11.002 190.947 10.5493 191.171 10.12C191.404 9.68133 191.521 9.22867 191.521 8.762C191.521 8.19267 191.343 7.76333 190.989 7.474C190.634 7.17533 190.121 7.026 189.449 7.026C188.926 7.026 188.441 7.11933 187.993 7.306C187.554 7.48333 187.129 7.768 186.719 8.16L186.299 7.25C186.672 6.87667 187.148 6.578 187.727 6.354C188.305 6.12067 188.917 6.004 189.561 6.004C190.559 6.004 191.329 6.23733 191.871 6.704C192.412 7.16133 192.683 7.81467 192.683 8.664C192.683 9.28933 192.529 9.88667 192.221 10.456C191.922 11.016 191.483 11.5947 190.905 12.192L187.811 15.328V15.006H193.103V16H186.649Z" fill="white"/>
<path d="M119.84 14.754C119.382 14.754 118.958 14.6467 118.566 14.432C118.174 14.208 117.861 13.9047 117.628 13.522C117.394 13.1393 117.278 12.7147 117.278 12.248C117.278 11.8187 117.385 11.4127 117.6 11.03C117.824 10.6473 118.127 10.3393 118.51 10.106C118.902 9.86333 119.345 9.742 119.84 9.742C120.297 9.742 120.717 9.854 121.1 10.078C121.482 10.2927 121.79 10.5867 122.024 10.96C122.266 11.3333 122.388 11.7627 122.388 12.248C122.388 12.7053 122.271 13.1253 122.038 13.508C121.814 13.8907 121.506 14.194 121.114 14.418C120.731 14.642 120.306 14.754 119.84 14.754ZM127.95 14.754C127.493 14.754 127.068 14.6467 126.676 14.432C126.284 14.208 125.971 13.9047 125.738 13.522C125.505 13.1393 125.388 12.7147 125.388 12.248C125.388 11.8187 125.495 11.4127 125.71 11.03C125.934 10.6473 126.237 10.3393 126.62 10.106C127.012 9.86333 127.455 9.742 127.95 9.742C128.407 9.742 128.827 9.854 129.21 10.078C129.593 10.2927 129.901 10.5867 130.134 10.96C130.377 11.3333 130.498 11.7627 130.498 12.248C130.498 12.7053 130.381 13.1253 130.148 13.508C129.924 13.8907 129.616 14.194 129.224 14.418C128.841 14.642 128.417 14.754 127.95 14.754ZM136.06 14.754C135.603 14.754 135.178 14.6467 134.786 14.432C134.394 14.208 134.081 13.9047 133.848 13.522C133.615 13.1393 133.498 12.7147 133.498 12.248C133.498 11.8187 133.605 11.4127 133.82 11.03C134.044 10.6473 134.347 10.3393 134.73 10.106C135.122 9.86333 135.565 9.742 136.06 9.742C136.517 9.742 136.937 9.854 137.32 10.078C137.703 10.2927 138.011 10.5867 138.244 10.96C138.487 11.3333 138.608 11.7627 138.608 12.248C138.608 12.7053 138.491 13.1253 138.258 13.508C138.034 13.8907 137.726 14.194 137.334 14.418C136.951 14.642 136.527 14.754 136.06 14.754ZM144.17 14.754C143.713 14.754 143.288 14.6467 142.896 14.432C142.504 14.208 142.191 13.9047 141.958 13.522C141.725 13.1393 141.608 12.7147 141.608 12.248C141.608 11.8187 141.715 11.4127 141.93 11.03C142.154 10.6473 142.457 10.3393 142.84 10.106C143.232 9.86333 143.675 9.742 144.17 9.742C144.627 9.742 145.047 9.854 145.43 10.078C145.813 10.2927 146.121 10.5867 146.354 10.96C146.597 11.3333 146.718 11.7627 146.718 12.248C146.718 12.7053 146.601 13.1253 146.368 13.508C146.144 13.8907 145.836 14.194 145.444 14.418C145.061 14.642 144.637 14.754 144.17 14.754Z" fill="white"/>
<g clip-path="url(#clip0_228_21095)">
<path d="M25.0674 12.7708V18.6334H23.1101V4.15527H28.3011C28.9207 4.14297 29.5367 4.2474 30.1137 4.46252C30.6906 4.67765 31.217 4.99921 31.6624 5.40866C32.1124 5.79325 32.4705 6.26491 32.7127 6.79194C32.9548 7.31897 33.0755 7.88915 33.0665 8.46417C33.0794 9.04227 32.9606 9.61618 32.7182 10.1466C32.4759 10.6769 32.1157 11.1513 31.6624 11.537C30.7547 12.3595 29.6343 12.7704 28.3011 12.7696H25.0674V12.7708ZM25.0674 5.93775V10.9918H28.3497C28.7095 11.0019 29.0676 10.9405 29.4011 10.8116C29.7346 10.6827 30.036 10.4891 30.2863 10.2432C30.5352 10.0132 30.733 9.73817 30.8681 9.43429C31.0032 9.13041 31.0729 8.80388 31.0729 8.47399C31.0729 8.1441 31.0032 7.81756 30.8681 7.51369C30.733 7.20981 30.5352 6.93476 30.2863 6.7048C30.0392 6.45367 29.7388 6.25531 29.4049 6.12287C29.071 5.99043 28.7113 5.92693 28.3497 5.93659H25.0674V5.93775Z" fill="white"/>
<path d="M37.5767 8.4043C39.0234 8.4043 40.1653 8.77165 41.0025 9.50636C41.8397 10.2411 42.2579 11.2484 42.2571 12.5284V18.6336H40.3849V17.2589H40.2998C39.4894 18.391 38.4115 18.9571 37.0661 18.9571C35.9177 18.9571 34.9569 18.6336 34.1837 17.9867C33.8127 17.6898 33.516 17.3179 33.3154 16.8983C33.1148 16.4786 33.0152 16.0216 33.024 15.5608C33.024 14.5357 33.4316 13.7205 34.2469 13.1152C35.0623 12.5099 36.1507 12.2064 37.5123 12.2049C38.6745 12.2049 39.6316 12.4071 40.3837 12.8114V12.3863C40.3859 12.0721 40.3145 11.7614 40.1747 11.4766C40.0349 11.1919 39.8301 10.9403 39.5753 10.7401C39.0577 10.2964 38.3832 10.0543 37.6861 10.062C36.5928 10.062 35.7276 10.5002 35.0906 11.3766L33.3668 10.345C34.315 9.05121 35.7183 8.4043 37.5767 8.4043ZM35.0444 15.6012C35.0431 15.8379 35.1013 16.0715 35.2143 16.2825C35.3272 16.4935 35.4915 16.6757 35.6936 16.8142C36.1265 17.1377 36.6638 17.3091 37.2144 17.2993C38.0403 17.298 38.832 16.9856 39.416 16.4306C40.0644 15.8507 40.3886 15.1703 40.3886 14.3894C39.7783 13.9273 38.9273 13.6963 37.8356 13.6963C37.0406 13.6963 36.3776 13.8784 35.8468 14.2427C35.3107 14.6123 35.0444 15.0617 35.0444 15.6012Z" fill="white"/>
<path d="M53.0037 8.72656L46.4682 22.9991H44.4477L46.873 18.0051L42.5756 8.72656H44.703L47.8091 15.8426H47.8516L50.8726 8.72656H53.0037Z" fill="white"/>
<path d="M17.1581 11.5076C17.1589 10.9408 17.1084 10.375 17.0074 9.81641H8.75293V13.0198H13.4807C13.384 13.5314 13.1792 14.0191 12.8788 14.4535C12.5783 14.8879 12.1884 15.26 11.7326 15.5474V17.6267H14.5542C16.2063 16.1793 17.1581 14.0387 17.1581 11.5076Z" fill="#4285F4"/>
<path d="M8.75284 19.6357C11.1149 19.6357 13.1038 18.8987 14.5541 17.628L11.7325 15.5486C10.9471 16.0546 9.9357 16.3434 8.75284 16.3434C6.4698 16.3434 4.532 14.8809 3.83906 12.9102H0.932373V15.0531C1.66089 16.4306 2.77799 17.5886 4.15896 18.3979C5.53993 19.2071 7.13041 19.6357 8.75284 19.6357Z" fill="#34A853"/>
<path d="M3.83908 12.9087C3.47275 11.876 3.47275 10.7576 3.83908 9.72493V7.58203H0.932394C0.31954 8.74088 0.000366211 10.0199 0.000366211 11.3168C0.000366211 12.6137 0.31954 13.8927 0.932394 15.0516L3.83908 12.9087Z" fill="#FBBC04"/>
<path d="M8.75284 6.29287C10.0011 6.27349 11.2072 6.72165 12.1106 7.54049L14.6088 5.16655C13.0246 3.75267 10.926 2.97643 8.75284 3.00055C7.13041 3.00062 5.53993 3.42919 4.15896 4.23842C2.77799 5.04764 1.66089 6.20568 0.932373 7.58323L3.83906 9.72613C4.532 7.75535 6.4698 6.29287 8.75284 6.29287Z" fill="#EA4335"/>
</g>
<rect opacity="0.2" x="68" width="2" height="22" fill="#D9D9D9"/>
<g clip-path="url(#clip1_228_21095)">
<path d="M97.6095 5.49805H91.3906V16.5036H97.6095V5.49805Z" fill="#FF5F00"/>
<path d="M91.7854 11C91.7854 8.76389 92.8515 6.78056 94.4901 5.49722C93.2858 4.56389 91.7657 4 90.1073 4C86.1785 4 83 7.13055 83 11C83 14.8694 86.1785 18 90.1073 18C91.7657 18 93.2858 17.4361 94.4901 16.5028C92.8515 15.2389 91.7854 13.2361 91.7854 11Z" fill="#EB001B"/>
<path d="M106 11C106 14.8694 102.821 18 98.8927 18C97.2344 18 95.7142 17.4361 94.5099 16.5028C96.1683 15.2194 97.2146 13.2361 97.2146 11C97.2146 8.76389 96.1485 6.78056 94.5099 5.49722C95.7142 4.56389 97.2344 4 98.8927 4C102.821 4 106 7.15 106 11Z" fill="#F79E1B"/>
</g>
<defs>
<clipPath id="clip0_228_21095">
<rect width="53" height="20" fill="white" transform="translate(0 3)"/>
</clipPath>
<clipPath id="clip1_228_21095">
<rect width="23" height="14" fill="white" transform="translate(83 4)"/>
</clipPath>
</defs>
</svg>
