<svg width="62" height="54" viewBox="0 0 62 54" fill="none" xmlns="http://www.w3.org/2000/svg">
<path d="M58.8622 10.5633H53.8727C53.3848 10.5633 52.9894 10.9588 52.9894 11.4465C52.9894 11.9343 53.3848 12.3298 53.8727 12.3298H58.8622C59.6184 12.3298 60.2337 12.9451 60.2337 13.7013V24.9246C60.2337 28.6686 57.1877 31.7145 53.4439 31.7145H51.4515V30.259C51.4515 29.5036 50.9137 28.8715 50.201 28.7253C50.0991 28.7045 49.9938 28.6935 49.8859 28.6935H49.3907V24.3863C49.3907 23.6245 48.771 23.0047 48.009 23.0047H43.942C43.1802 23.0047 42.5604 23.6245 42.5604 24.3863V28.6935H42.0651C41.9573 28.6935 41.8519 28.7045 41.7501 28.7253C41.0373 28.8715 40.4996 29.5036 40.4996 30.259V31.7145H21.5006V30.259C21.5006 29.5036 20.9629 28.8715 20.2502 28.7253C20.1483 28.7045 20.043 28.6935 19.9351 28.6935H19.4398V24.3863C19.4398 23.6245 18.8201 23.0047 18.0583 23.0047H13.9912C13.2294 23.0047 12.6096 23.6245 12.6096 24.3863V28.6935H12.1144C12.0065 28.6935 11.9011 28.7045 11.7993 28.7253C11.0865 28.8715 10.5489 29.5036 10.5489 30.259V31.7145H8.55638C4.8124 31.7145 1.76652 28.6685 1.76652 24.9246V13.7013C1.76652 12.9451 2.3818 12.3298 3.13803 12.3298H48.2721C48.7599 12.3298 49.1553 11.9343 49.1553 11.4465C49.1553 10.9588 48.7599 10.5633 48.2721 10.5633H43.9737V6.63933C43.9737 3.95165 41.7871 1.76518 39.0994 1.76518H38.3055C38.0905 1.19434 37.5401 0.786377 36.8949 0.786377H25.1052C24.46 0.786377 23.9098 1.19434 23.6947 1.76518H22.9008C20.2131 1.76518 18.0267 3.95177 18.0267 6.63933V10.5634H3.13791C1.40772 10.5633 0 11.971 0 13.7013V24.9246V38.5524C0 39.0402 0.395493 39.4357 0.88326 39.4357C1.37103 39.4357 1.76652 39.0402 1.76652 38.5524V30.1227C3.33178 32.1626 5.79241 33.481 8.55638 33.481H10.5487V34.1544C10.5487 35.0176 11.2511 35.7199 12.1142 35.7199H12.6095V37.9936C12.6095 39.8767 14.1415 41.4087 16.0246 41.4087C17.9077 41.4087 19.4397 39.8767 19.4397 37.9936V35.7199H19.935C20.7983 35.7199 21.5006 35.0176 21.5006 34.1544V33.481H40.4996V34.1544C40.4996 35.0176 41.202 35.7199 42.0651 35.7199H42.5604V37.9936C42.5604 39.8767 44.0925 41.4087 45.9755 41.4087C47.8585 41.4087 49.3906 39.8767 49.3906 37.9936V35.7199H49.8858C50.749 35.7199 51.4514 35.0176 51.4514 34.1544V33.481H53.4437C56.2077 33.481 58.6683 32.1626 60.2336 30.1227V50.0756C60.2336 50.8319 59.6183 51.4471 58.8621 51.4471H3.13791C2.38168 51.4471 1.7664 50.8319 1.7664 50.0756V44.153C1.7664 43.6653 1.37091 43.2698 0.883138 43.2698C0.395372 43.2698 0 43.6653 0 44.153V50.0756C0 51.8059 1.40772 53.2135 3.13791 53.2135H58.8621C60.5924 53.2135 62 51.8058 62 50.0756V24.9246V13.7013C62.0001 11.971 60.5925 10.5633 58.8622 10.5633ZM39.0994 3.53158C40.813 3.53158 42.2073 4.92573 42.2073 6.63933V10.5634H40.6763V6.63933C40.6763 5.76976 39.9689 5.06245 39.0996 5.06245H38.4034V3.53158H39.0994ZM25.3634 2.55253H36.6369V6.03616H25.3634V2.55253ZM23.6965 6.82885C23.9129 7.39714 24.462 7.80268 25.1052 7.80268H36.8948C37.538 7.80268 38.0871 7.39714 38.3035 6.82885H38.9096V10.5633H23.0903V6.82885H23.6965ZM19.7931 6.63933C19.7931 4.92573 21.1872 3.53158 22.9008 3.53158H23.597V5.06245H22.9008C22.0314 5.06245 21.3239 5.76988 21.3239 6.63933V10.5634H19.7931V6.63933ZM17.6733 24.7711V28.6935H14.3759V24.7711H17.6733ZM17.6733 37.9936C17.6733 38.9026 16.9338 39.6423 16.0246 39.6423C15.1156 39.6423 14.3759 38.9028 14.3759 37.9936V35.7199H17.6733V37.9936ZM19.7341 32.5978V33.9534H18.5564H13.4927H12.315V32.5978V30.4599H13.4927H18.5564H19.7341V32.5978ZM44.3269 24.7711H47.6243V28.6935H44.3269V24.7711ZM47.6242 37.9936C47.6242 38.9026 46.8847 39.6423 45.9755 39.6423C45.0665 39.6423 44.3268 38.9028 44.3268 37.9936V35.7199H47.6242V37.9936ZM49.6851 32.5978V33.9534H48.5075H43.4437H42.266V32.5978V30.4599H43.4437H48.5075H49.6851V32.5978Z" fill="#665CD1"/>
</svg>
