<svg width="20" height="20" viewBox="0 0 20 20" fill="none" xmlns="http://www.w3.org/2000/svg">
    <path d="M6.82311 10.6371C6.82191 10.6355 6.82034 10.6333 6.81866 10.6309L0.940893 2.35092C0.940736 2.3507 0.940579 2.35048 0.940422 2.35027C0.71855 2.04116 0.688077 1.63371 0.862082 1.29514L6.82311 10.6371ZM6.82311 10.6371L6.82306 10.6372L6.82832 10.6443C7.01005 10.8896 7.10836 11.1868 7.10901 11.4924C7.10901 11.4925 7.10901 11.4926 7.10901 11.4927L7.10901 18.2437V18.2445H7.35901M6.82311 10.6371L8.10981 18.9999C7.90993 18.9999 7.71826 18.9203 7.57727 18.7785C7.43629 18.6366 7.35776 18.4445 7.35901 18.2445M7.35901 18.2445V11.4922V18.2445ZM17.804 0.750001C18.181 0.749383 18.5264 0.959905 18.6987 1.29511L17.804 0.750001ZM17.804 0.750001H17.8043V1L17.8038 0.750002C17.8039 0.750002 17.804 0.750001 17.804 0.750001ZM17.804 0.750001H1.75658M17.804 0.750001H1.75658M1.75658 0.750001C1.37973 0.749383 1.03433 0.959932 0.862097 1.29511L1.75658 0.750001ZM7.96813 9.80767L2.54184 2.16373H17.0189L11.5925 9.8077C11.2334 10.2958 11.0392 10.8857 11.038 11.4917V11.4922V16.6917L8.52274 17.6507L8.52274 11.4922L8.52274 11.4917C8.52157 10.8857 8.32743 10.2958 7.96813 9.80767Z" fill="#665CD1" stroke="#665CD1" stroke-width="0.5" />
</svg>
    