<svg width="20" height="19" viewBox="0 0 20 19" fill="none" xmlns="http://www.w3.org/2000/svg">
<path d="M6.82435 10.1202C6.82314 10.1186 6.82158 10.1165 6.81991 10.1142L0.942176 1.98504C0.942016 1.98482 0.941857 1.9846 0.941697 1.98438C0.718483 1.67907 0.687499 1.27547 0.862947 0.940312L6.82435 10.1202ZM6.82435 10.1202L6.82429 10.1203L6.82964 10.1274C7.01077 10.3674 7.10836 10.6576 7.10901 10.9556C7.10901 10.9557 7.10901 10.9558 7.10901 10.9559L7.10901 17.584V17.5847H7.35901M6.82435 10.1202L11.79 17.2682M7.35901 17.5847C7.35776 17.7811 7.43629 17.9696 7.57727 18.1089C7.71826 18.2482 7.90993 18.3264 8.10981 18.3264C8.21153 18.3264 8.312 18.3064 8.40588 18.2682M7.35901 17.5847V10.9554V17.5847ZM8.40588 18.2682L8.49353 18.5023L8.49658 18.5012C8.49776 18.5007 8.49893 18.5002 8.5001 18.4997L8.40588 18.2682ZM8.40588 18.2682L11.7096 17.0314M11.7096 17.0314L11.7813 17.2709C11.7842 17.27 11.7871 17.2691 11.79 17.2682M11.7096 17.0314C12.0056 16.9427 12.2021 16.6685 12.2021 16.3382V10.9554L11.79 17.2682M11.7096 17.0314L11.7972 17.2655L11.79 17.2682M17.804 0.404298C18.1786 0.403694 18.5245 0.609086 18.6978 0.940312L17.804 0.404298ZM17.804 0.404298H17.8043V0.654297L17.8038 0.404299C17.8039 0.404298 17.804 0.404298 17.804 0.404298ZM17.804 0.404298H1.75657M17.804 0.404298H1.75657M1.75657 0.404298C1.38212 0.403694 1.0363 0.609103 0.862962 0.940283L1.75657 0.404298ZM7.96685 9.29712L2.54705 1.80138H17.0137L11.5937 9.29716C11.2341 9.77717 11.0392 10.3578 11.038 10.9549V10.9554V16.0559L8.52274 16.9974L8.52274 10.9554L8.52274 10.9549C8.52157 10.3578 8.32672 9.77715 7.96685 9.29712Z" fill="#665CD1" stroke="#665CD1" stroke-width="0.5"/>
</svg>
