<svg width="17" height="19" viewBox="0 0 17 19" fill="none" xmlns="http://www.w3.org/2000/svg">
<path fill-rule="evenodd" clip-rule="evenodd" d="M0 1C0 0.585786 0.335786 0.25 0.75 0.25H15.75C16.1642 0.25 16.5 0.585786 16.5 1V18C16.5 18.2846 16.339 18.5446 16.0842 18.6714C15.8295 18.7982 15.5249 18.7699 15.2979 18.5984L8.25 13.2733L1.20212 18.5984C0.975085 18.7699 0.670521 18.7982 0.41578 18.6714C0.161038 18.5446 0 18.2846 0 18V1ZM1.5 1.75V16.4933L7.79788 11.7349C8.0654 11.5328 8.4346 11.5328 8.70212 11.7349L15 16.4933V1.75H1.5Z" fill="#171717"/>
</svg>
