<svg width="252" height="256" viewBox="0 0 252 256" fill="none" xmlns="http://www.w3.org/2000/svg">
<path d="M125.642 0.00229777C55.5127 0.00229777 0 56.5324 0 127.654C0 199.112 55.5127 256 125.642 256C196.169 256 251.996 199.07 251.996 127.654C252.126 110.873 248.948 94.2337 242.648 78.702C236.347 63.1704 227.049 49.0563 215.294 37.1793C203.536 25.3025 189.559 15.9 174.167 9.51785C158.777 3.13568 142.282 -0.0987771 125.642 0.00229777ZM192.552 130.268L141.846 146.103L126.228 196.983L123.908 204.51L121.461 196.835L105.862 146.103L59.214 131.533L48.0285 127.949L59.3397 124.406L105.946 109.858L121.461 59.1891L123.824 51.4931L126.145 59.0206L141.762 109.9L192.552 125.84L199.808 128.096L192.552 130.268Z" fill="url(#paint0_linear_42_2193)"/>
<defs>
<linearGradient id="paint0_linear_42_2193" x1="-46.5015" y1="281.358" x2="404.771" y2="-93.6125" gradientUnits="userSpaceOnUse">
<stop stop-color="#333333"/>
<stop offset="1"/>
</linearGradient>
</defs>
</svg>
