<svg width="45" height="14" viewBox="0 0 45 14" fill="none" xmlns="http://www.w3.org/2000/svg">
<path opacity="0.5" d="M5.67 13.072H8.298V9.112L11.718 11.092L13.014 8.824L9.594 6.844L13.014 4.864L11.718 2.596L8.298 4.576V0.616H5.67V4.576L2.214 2.596L0.918 4.864L4.338 6.844L0.918 8.824L2.214 11.092L5.67 9.112V13.072ZM21.4095 13.072H24.0375V9.112L27.4575 11.092L28.7535 8.824L25.3335 6.844L28.7535 4.864L27.4575 2.596L24.0375 4.576V0.616H21.4095V4.576L17.9535 2.596L16.6575 4.864L20.0775 6.844L16.6575 8.824L17.9535 11.092L21.4095 9.112V13.072ZM37.1489 13.072H39.7769V9.112L43.1969 11.092L44.4929 8.824L41.0729 6.844L44.4929 4.864L43.1969 2.596L39.7769 4.576V0.616H37.1489V4.576L33.6929 2.596L32.3969 4.864L35.8169 6.844L32.3969 8.824L33.6929 11.092L37.1489 9.112V13.072Z" fill="#5A5A5A"/>
</svg>
