<svg width="76" height="34" viewBox="0 0 76 34" fill="none" xmlns="http://www.w3.org/2000/svg">
<path d="M8.28225 22V21.008L12.2823 16.832C12.8049 16.288 13.1943 15.7707 13.4503 15.28C13.7169 14.7787 13.8503 14.2613 13.8503 13.728C13.8503 13.0773 13.6476 12.5867 13.2423 12.256C12.8369 11.9147 12.2503 11.744 11.4823 11.744C10.8849 11.744 10.3303 11.8507 9.81825 12.064C9.31692 12.2667 8.83158 12.592 8.36225 13.04L7.88225 12C8.30892 11.5733 8.85292 11.232 9.51425 10.976C10.1756 10.7093 10.8743 10.576 11.6102 10.576C12.7516 10.576 13.6316 10.8427 14.2503 11.376C14.8689 11.8987 15.1783 12.6453 15.1783 13.616C15.1783 14.3307 15.0023 15.0133 14.6503 15.664C14.3089 16.304 13.8076 16.9653 13.1463 17.648L9.61025 21.232V20.864H15.6583V22H8.28225ZM22.676 22V19.552H17.3V18.592L22.884 10.72H23.972V18.48H25.7V19.552H23.972V22H22.676ZM22.676 18.48V12.288H23.028L18.388 18.816V18.48H22.676Z" fill="white"/>
<circle cx="17" cy="17" r="16" stroke="#8DC641" stroke-width="2"/>
<path d="M43.5192 23V9.605H48.9722C50.3782 9.605 51.4612 9.947 52.2212 10.631C52.9812 11.3023 53.3612 12.2397 53.3612 13.443C53.3612 14.621 52.9812 15.5583 52.2212 16.255C51.4612 16.939 50.3782 17.281 48.9722 17.281H45.0962V23H43.5192ZM45.0962 15.97H48.8202C49.7955 15.97 50.5302 15.7483 51.0242 15.305C51.5308 14.8617 51.7842 14.241 51.7842 13.443C51.7842 12.6323 51.5308 12.0053 51.0242 11.562C50.5302 11.1187 49.7955 10.897 48.8202 10.897H45.0962V15.97ZM58.8893 23.171C58.0406 23.171 57.2996 22.9747 56.6663 22.582C56.0329 22.1767 55.5389 21.6067 55.1843 20.872C54.8423 20.1373 54.6713 19.257 54.6713 18.231C54.6713 17.1923 54.8423 16.3057 55.1843 15.571C55.5389 14.8363 56.0329 14.2727 56.6663 13.88C57.2996 13.4873 58.0406 13.291 58.8893 13.291C59.7506 13.291 60.4916 13.5127 61.1123 13.956C61.7456 14.3867 62.1636 14.9757 62.3663 15.723H62.1383L62.3473 13.462H63.8293C63.7913 13.8293 63.7533 14.203 63.7153 14.583C63.6899 14.9503 63.6773 15.3113 63.6773 15.666V23H62.1383V20.758H62.3473C62.1446 21.5053 61.7266 22.0943 61.0933 22.525C60.4599 22.9557 59.7253 23.171 58.8893 23.171ZM59.1933 21.917C60.1053 21.917 60.8273 21.6067 61.3593 20.986C61.8913 20.3527 62.1573 19.4343 62.1573 18.231C62.1573 17.015 61.8913 16.0967 61.3593 15.476C60.8273 14.8427 60.1053 14.526 59.1933 14.526C58.2939 14.526 57.5719 14.8427 57.0273 15.476C56.4953 16.0967 56.2293 17.015 56.2293 18.231C56.2293 19.4343 56.4953 20.3527 57.0273 20.986C57.5719 21.6067 58.2939 21.917 59.1933 21.917ZM66.1801 27.313L65.8191 26.04C66.4144 25.9007 66.9084 25.736 67.3011 25.546C67.7064 25.3687 68.0421 25.128 68.3081 24.824C68.5741 24.52 68.8021 24.14 68.9921 23.684L69.4861 22.563L69.4481 23.209L65.2871 13.462H66.9591L70.3981 21.841H69.9041L73.3051 13.462H74.9201L70.5121 23.798C70.2587 24.406 69.9801 24.9127 69.6761 25.318C69.3721 25.736 69.0427 26.0717 68.6881 26.325C68.3461 26.591 67.9661 26.8 67.5481 26.952C67.1301 27.104 66.6741 27.2243 66.1801 27.313Z" fill="white"/>
</svg>
