<svg width="104" height="104" viewBox="0 0 104 104" fill="none" xmlns="http://www.w3.org/2000/svg">
<circle cx="52" cy="52" r="52" fill="#665CD1"/>
<path d="M47.5674 74.8212L46.8561 66.8934C46.7783 66.033 46.5939 65.2468 46.3075 64.5557C44.8165 60.967 41.6592 59.0842 39.9097 58.282C39.2237 57.9671 38.5958 57.5277 38.0445 56.9764L33.5746 52.5061C32.5467 51.4792 31.0814 50.9909 29.6741 51.1643L29.3066 43.2509C29.1927 40.8044 27.2687 38.7821 24.8313 38.5464C23.287 38.405 22.0082 39.615 22.0082 41.1097V55.397C22.0082 56.9214 22.4374 58.4032 23.2498 59.6828C25.544 63.2968 28.3062 66.5328 31.4603 69.301C32.7385 70.4231 33.4716 72.0862 33.4716 73.8632V74.6977C32.0117 74.6986 30.8242 75.8866 30.8242 77.3467V81.3419C30.8242 82.8026 32.0127 83.9911 33.4735 83.9911H46.8095C48.2702 83.9911 49.4588 82.8026 49.4588 81.3419V77.3467C49.4588 76.1511 48.6573 75.1497 47.5674 74.8212ZM32.6968 67.8924C29.6769 65.2417 27.0308 62.1418 24.8324 58.6778C24.2114 57.6994 23.8828 56.5649 23.8828 55.397V41.1097C23.8828 40.7134 24.2067 40.409 24.5816 40.409C25.8706 40.409 27.3552 41.635 27.4341 43.3379L27.8272 51.8055C27.496 52.0055 27.1911 52.2467 26.9161 52.5258C25.9002 53.5556 25.9111 55.2313 26.9404 56.2611L36.9868 66.3071C37.3529 66.6732 37.946 66.6732 38.3121 66.3071C38.6782 65.941 38.6782 65.3479 38.3121 64.9818L28.266 54.9358C27.9621 54.6319 27.9552 54.1414 28.2509 53.8416C28.5053 53.5834 28.8014 53.3804 29.1387 53.2348C29.1524 53.2293 29.1666 53.2233 29.1798 53.217C30.1788 52.795 31.4452 53.0284 32.2492 53.8321L36.719 58.3019C37.4283 59.0112 38.2388 59.5778 39.128 59.9855C40.6281 60.6738 43.3304 62.2764 44.5761 65.2749C44.7899 65.7892 44.9285 66.3906 44.9889 67.0615L45.6708 74.661C44.6151 74.6648 49.4951 74.6474 35.346 74.6976V73.8633C35.3461 71.5467 34.3805 69.3706 32.6968 67.8924ZM47.5842 81.3419C47.5842 81.7693 47.2369 82.1166 46.8095 82.1166H33.4735C33.0461 82.1166 32.6987 81.7693 32.6987 81.3419V77.3467C32.6987 76.9193 33.0461 76.572 33.4735 76.572H46.8095C47.2369 76.572 47.5842 76.9193 47.5842 77.3467V81.3419Z" fill="white"/>
<path d="M81.1478 39.2034C80.6115 38.7161 79.8784 38.4758 79.169 38.5462C76.7316 38.7819 74.8078 40.8042 74.6933 43.2507L74.3262 51.1642C72.9131 50.9939 71.4541 51.4795 70.4253 52.5064L65.956 56.9757C65.4032 57.5282 64.7762 57.9674 64.0898 58.2818C62.3407 59.0845 59.184 60.9668 57.6921 64.5555C57.4055 65.2466 57.2207 66.0333 57.1439 66.8937L56.4331 74.8209C55.3427 75.1492 54.5409 76.1507 54.5409 77.3466V81.3417C54.5409 82.8025 55.7299 83.991 57.1906 83.991H70.527C71.9878 83.991 73.1758 82.8025 73.1758 81.3417V77.3466C73.1758 75.8861 71.9884 74.6979 70.528 74.6974V73.863C70.528 72.086 71.2611 70.4235 72.5397 69.3008C75.6946 66.5326 78.457 63.2961 80.7507 59.6827C81.5626 58.4031 81.9918 56.9212 81.9918 55.3969V41.1095C81.9917 40.385 81.6842 39.6904 81.1478 39.2034ZM71.3013 77.3466V81.3417C71.3013 81.7691 70.9535 82.1164 70.5269 82.1164H57.1905C56.7631 82.1164 56.4153 81.7691 56.4153 81.3417V77.3466C56.4153 76.9192 56.7631 76.5718 57.1905 76.5718H66.1461L69.5861 76.5879H69.5907C69.6187 76.5879 69.6439 76.5743 69.6716 76.5718H70.527C70.9536 76.5718 71.3013 76.9192 71.3013 77.3466ZM80.1173 55.3969C80.1173 56.5648 79.7887 57.6993 79.1673 58.6781C76.9696 62.141 74.3245 65.2411 71.3041 67.8922C69.6191 69.3704 68.6534 71.5465 68.6534 73.863V74.6973H66.1953L58.3291 74.6607L59.011 67.0613C59.0715 66.3904 59.2096 65.7895 59.4237 65.2751C60.6694 62.2761 63.3713 60.6735 64.8714 59.9857C65.7602 59.5784 66.5702 59.0119 67.2814 58.3016L71.7507 53.8323C72.5543 53.0296 73.8028 52.7903 74.8215 53.2172C74.8343 53.2236 74.8481 53.2291 74.8618 53.2345C75.195 53.3777 75.4933 53.5819 75.7496 53.8418C76.0443 54.1411 76.0379 54.6316 75.734 54.9355L65.688 64.9815C65.3219 65.3476 65.3219 65.9407 65.688 66.3068C66.0541 66.6729 66.6472 66.6729 67.0133 66.3068L77.0593 56.2608C78.089 55.2315 78.0999 53.5561 77.085 52.5265C76.8095 52.2459 76.5037 52.0043 76.1724 51.8048L76.5659 43.338C76.6373 41.8164 77.8336 40.5584 79.3483 40.4123C79.5479 40.3936 79.7391 40.4563 79.8874 40.5908C80.0356 40.7253 80.1171 40.9093 80.1171 41.1094V55.3969H80.1173Z" fill="white"/>
<path d="M56.7576 53.033C57.0557 52.9231 57.3487 52.7981 57.6418 52.6761C59.5914 51.7734 60.8329 53.1274 60.9267 53.169C61.2992 53.4834 61.8502 53.461 62.1943 53.1159L64.8284 50.4822C65.1726 50.138 65.1964 49.5875 64.8824 49.2154C64.8407 49.1217 63.4959 47.8823 64.3827 45.9195C64.5136 45.6284 64.6345 45.3461 64.7433 45.0505C65.495 43.0457 67.324 43.1227 67.4178 43.0868C67.9047 43.0478 68.2799 42.6414 68.2799 42.1528V38.4322C68.2799 37.958 67.9257 37.5586 67.4553 37.5018C67.336 37.4565 65.4971 37.5337 64.7415 35.5216C64.6353 35.2411 64.519 34.961 64.3881 34.6461C63.4864 32.6961 64.8407 31.454 64.8824 31.3603C65.1964 30.9882 65.1726 30.4377 64.8284 30.0935L62.1943 27.4598C61.8501 27.1156 61.2991 27.0918 60.9275 27.4058C60.8336 27.4476 59.595 28.7975 57.6316 27.9042C57.3387 27.7733 57.0577 27.6529 56.763 27.5449C54.7785 26.7986 54.8229 24.9302 54.7868 24.8361C54.7319 24.3638 54.331 24.0078 53.856 24.0078H50.1441C49.6695 24.0078 49.2695 24.3629 49.2133 24.8343C49.1774 24.9281 49.221 26.7986 47.2445 27.5422C46.9421 27.6525 46.6601 27.7733 46.3627 27.9065C44.4071 28.7962 43.1652 27.4468 43.0714 27.405C42.6979 27.0924 42.1492 27.1157 41.8055 27.4599L39.1718 30.0936C38.8277 30.4378 38.8043 30.9883 39.1178 31.3604C39.1595 31.4541 40.5086 32.6959 39.6172 34.6549C39.4872 34.9436 39.3683 35.2329 39.257 35.5254C38.5067 37.5214 36.6386 37.4662 36.5446 37.5018C36.0738 37.5586 35.72 37.958 35.72 38.4322V42.1528C35.72 42.6416 36.0952 43.048 36.5826 43.0868C36.6765 43.1227 38.5065 43.0529 39.2547 45.0445C39.3659 45.3465 39.4863 45.6289 39.6181 45.9218C40.5053 47.8877 39.1595 49.1217 39.1179 49.2154C38.8045 49.5875 38.8278 50.138 39.172 50.4822L41.8056 53.1159C42.1493 53.4601 42.7004 53.4829 43.0724 53.1699C43.1662 53.1282 44.4025 51.7733 46.394 52.6917C46.6736 52.8078 46.9534 52.9266 47.2374 53.0308C49.2181 53.7751 49.1775 55.6475 49.2135 55.7414C49.2698 56.2127 49.6697 56.5679 50.1443 56.5679H53.8563C54.3313 56.5679 54.7321 56.2119 54.7871 55.7396C54.8229 55.6459 54.7716 53.7787 56.7576 53.033ZM53.048 54.6934H50.9502C50.5928 53.1443 49.4652 51.8652 47.89 51.2739C47.678 51.1955 47.4796 51.1133 47.1449 50.9746C45.6155 50.2672 43.9127 50.3674 42.5562 51.2153L41.0725 49.7321C41.9132 48.3867 42.0189 46.6838 41.3265 45.1511C41.2134 44.8999 41.1095 44.6573 41.0116 44.3914C40.4235 42.8254 39.149 41.6996 37.5944 41.339V39.2403C39.1408 38.8893 40.419 37.7626 41.0102 36.1879C41.1072 35.933 41.2124 35.6786 41.325 35.4274C42.0211 33.8975 41.9163 32.1961 41.0724 30.8442L42.5556 29.3605C43.9047 30.2039 45.6072 30.31 47.1343 29.6149C47.386 29.5023 47.6286 29.398 47.8967 29.2995C49.471 28.7079 50.6004 27.4223 50.9519 25.8823H53.0497C53.4075 27.4314 54.5351 28.7101 56.1113 29.3022C56.3712 29.3974 56.6138 29.5023 56.86 29.6125C58.3894 30.3091 60.0918 30.2047 61.4437 29.3599L62.9274 30.8431C62.0807 32.1955 61.9774 33.8979 62.6711 35.398C62.78 35.6611 62.889 35.9247 62.9877 36.1842C63.5808 37.7621 64.8585 38.8892 66.4054 39.2403V41.3376C64.8558 41.695 63.5772 42.8226 62.986 44.3974C62.8899 44.6578 62.7856 44.9008 62.6739 45.1497C61.9811 46.682 62.0863 48.3825 62.9283 49.7316L61.4446 51.2149C60.0927 50.3682 58.3894 50.2648 56.8912 50.9591C56.5827 51.0871 56.3375 51.1899 56.104 51.2762C54.5299 51.8675 53.4004 53.1521 53.048 54.6934Z" fill="white"/>
<path d="M59.9107 40.2882C59.9107 35.9265 56.3622 32.3779 52 32.3779C47.6383 32.3779 44.0897 35.9265 44.0897 40.2882C44.0897 44.6499 47.6383 48.1985 52 48.1985C56.3622 48.1985 59.9107 44.6499 59.9107 40.2882ZM52 46.3241C48.6721 46.3241 45.9643 43.6162 45.9643 40.2883C45.9643 36.9604 48.6721 34.2525 52 34.2525C55.3279 34.2525 58.0362 36.9603 58.0362 40.2882C58.0362 43.6161 55.3279 46.3241 52 46.3241Z" fill="white"/>
<path d="M54.0649 37.6652L50.8069 40.9236L49.9352 40.0518C49.5691 39.6857 48.976 39.6857 48.6099 40.0518C48.2438 40.4179 48.2438 41.011 48.6099 41.3771L50.1443 42.9116C50.5097 43.277 51.1031 43.2782 51.4696 42.9116L55.3902 38.9905C55.7563 38.6244 55.7563 38.0313 55.3902 37.6652C55.0242 37.2991 54.431 37.2991 54.0649 37.6652Z" fill="white"/>
</svg>
