<svg width="104" height="104" viewBox="0 0 104 104" fill="none" xmlns="http://www.w3.org/2000/svg">
<circle cx="52" cy="52" r="52" fill="#665CD1"/>
<path d="M71.4801 77.4984C66.9349 78.3968 58.2677 79.9041 51.2872 79.9041C41.1354 79.9041 29.0686 76.6215 28.1213 77.0949C27.2686 77.521 26.2416 77.1639 26.0768 76.2811C29.6541 70.4871 27.0241 78.4257 27.0241 57.582C27.0241 56.0007 27.4266 52.6987 28.1887 48.0332C28.2093 47.9074 28.2048 47.7788 28.1757 47.6547C28.1465 47.5306 28.0932 47.4135 28.0188 47.3101C27.9443 47.2066 27.8503 47.1188 27.7419 47.0517C27.6336 46.9846 27.5131 46.9395 27.3873 46.9189C27.2615 46.8984 27.1329 46.9028 27.0088 46.932C26.8847 46.9612 26.7676 47.0145 26.6642 47.0889C26.5607 47.1633 26.4729 47.2574 26.4058 47.3658C26.3387 47.4741 26.2936 47.5946 26.273 47.7204C25.4834 52.5557 25.0831 55.8737 25.0831 57.582C25.0831 67.6659 25.707 71.6624 25.9797 72.9274L24.2756 75.4837C23.867 76.0969 24.1861 77.8477 25.5979 78.7202C26.0527 78.9971 26.5655 79.1646 27.0961 79.2095C27.6266 79.2543 28.1603 79.1753 28.6551 78.9786C46.5135 82.8486 56.0324 82.5303 71.8567 79.4032C71.9817 79.3785 72.1007 79.3294 72.2068 79.2587C72.3129 79.1881 72.404 79.0972 72.475 78.9913C72.5459 78.8854 72.5954 78.7666 72.6204 78.6416C72.6455 78.5166 72.6456 78.3879 72.6209 78.2628C72.5962 78.1378 72.5472 78.0188 72.4765 77.9127C72.4058 77.8066 72.3149 77.7155 72.209 77.6445C72.1032 77.5735 71.9843 77.5241 71.8593 77.4991C71.7343 77.474 71.6056 77.4738 71.4806 77.4985L71.4801 77.4984Z" fill="white"/>
<path d="M27.0236 44.967H49.3456C49.603 44.967 49.8499 44.8647 50.0319 44.6827C50.2139 44.5007 50.3161 44.2538 50.3161 43.9964C50.3161 43.739 50.2139 43.4922 50.0319 43.3102C49.8499 43.1282 49.603 43.0259 49.3456 43.0259H27.0236C26.7662 43.0259 26.5193 42.9237 26.3373 42.7417C26.1553 42.5596 26.053 42.3128 26.053 42.0554C26.053 41.798 26.1553 41.5511 26.3373 41.3691C26.5193 41.1871 26.7662 41.0849 27.0236 41.0849H34.7878C35.0452 41.0849 35.292 40.9826 35.474 40.8006C35.656 40.6186 35.7583 40.3717 35.7583 40.1143C35.7583 39.8569 35.656 39.6101 35.474 39.4281C35.292 39.2461 35.0452 39.1438 34.7878 39.1438H27.0236C26.7662 39.1438 26.5193 39.0416 26.3373 38.8596C26.1553 38.6776 26.053 38.4307 26.053 38.1733C26.053 37.9159 26.1553 37.669 26.3373 37.487C26.5193 37.305 26.7662 37.2028 27.0236 37.2028H68.7561C69.0135 37.2028 69.2604 37.1005 69.4424 36.9185C69.6244 36.7365 69.7266 36.4896 69.7266 36.2322C69.7266 35.9748 69.6244 35.728 69.4424 35.546C69.2604 35.364 69.0135 35.2617 68.7561 35.2617H27.0236C24.5002 35.2617 23.19 38.2562 24.8552 40.1143C23.191 41.9716 24.4985 44.967 27.0236 44.967Z" fill="white"/>
<path d="M34.9983 33.0096C41.7463 25.7007 47.5312 21.6754 51.2876 21.6754C55.044 21.6754 60.829 25.7007 67.5769 33.0096C67.7515 33.1987 67.9941 33.3107 68.2513 33.321C68.5085 33.3312 68.7593 33.2389 68.9484 33.0643C69.1375 32.8897 69.2495 32.6471 69.2598 32.3899C69.2701 32.1327 69.1777 31.8819 69.0031 31.6928C63.9664 26.2369 56.8046 19.7344 51.2876 19.7344C45.7707 19.7344 38.6088 26.2369 33.5722 31.6928C33.4857 31.7865 33.4185 31.8962 33.3745 32.0158C33.3304 32.1354 33.3104 32.2625 33.3155 32.3899C33.3257 32.6471 33.4377 32.8897 33.6269 33.0643C33.816 33.2389 34.0667 33.3312 34.3239 33.321C34.4513 33.3159 34.5764 33.2858 34.6921 33.2323C34.8078 33.1789 34.9119 33.1032 34.9983 33.0096Z" fill="white"/>
<path d="M42.553 39.1445C42.2956 39.1445 42.0488 39.2468 41.8668 39.4288C41.6848 39.6108 41.5825 39.8577 41.5825 40.1151C41.5825 40.3725 41.6848 40.6193 41.8668 40.8013C42.0488 40.9833 42.2956 41.0856 42.553 41.0856H51.2878C51.5452 41.0856 51.792 40.9833 51.974 40.8013C52.156 40.6193 52.2583 40.3725 52.2583 40.1151C52.2583 39.8577 52.156 39.6108 51.974 39.4288C51.792 39.2468 51.5452 39.1445 51.2878 39.1445H42.553Z" fill="white"/>
<path d="M38.6702 41.0856C39.2062 41.0856 39.6408 40.6511 39.6408 40.1151C39.6408 39.5791 39.2062 39.1445 38.6702 39.1445C38.1342 39.1445 37.6997 39.5791 37.6997 40.1151C37.6997 40.6511 38.1342 41.0856 38.6702 41.0856Z" fill="white"/>
<path d="M46.4349 29.441C46.9709 29.441 47.4054 29.0065 47.4054 28.4705C47.4054 27.9345 46.9709 27.5 46.4349 27.5C45.8989 27.5 45.4644 27.9345 45.4644 28.4705C45.4644 29.0065 45.8989 29.441 46.4349 29.441Z" fill="white"/>
<path d="M49.3465 25.5582C49.8825 25.5582 50.317 25.1237 50.317 24.5877C50.317 24.0517 49.8825 23.6172 49.3465 23.6172C48.8105 23.6172 48.376 24.0517 48.376 24.5877C48.376 25.1237 48.8105 25.5582 49.3465 25.5582Z" fill="white"/>
<path d="M51.2874 28.4684C51.8234 28.4684 52.2579 28.0339 52.2579 27.4979C52.2579 26.9619 51.8234 26.5273 51.2874 26.5273C50.7514 26.5273 50.3169 26.9619 50.3169 27.4979C50.3169 28.0339 50.7514 28.4684 51.2874 28.4684Z" fill="white"/>
<path d="M54.1986 26.527C54.7346 26.527 55.1691 26.0925 55.1691 25.5565C55.1691 25.0205 54.7346 24.5859 54.1986 24.5859C53.6625 24.5859 53.228 25.0205 53.228 25.5565C53.228 26.0925 53.6625 26.527 54.1986 26.527Z" fill="white"/>
<path d="M56.1397 30.4098C56.6757 30.4098 57.1102 29.9753 57.1102 29.4393C57.1102 28.9033 56.6757 28.4688 56.1397 28.4688C55.6037 28.4688 55.1692 28.9033 55.1692 29.4393C55.1692 29.9753 55.6037 30.4098 56.1397 30.4098Z" fill="white"/>
<path d="M60.0218 33.32C60.5578 33.32 60.9923 32.8854 60.9923 32.3494C60.9923 31.8134 60.5578 31.3789 60.0218 31.3789C59.4858 31.3789 59.0513 31.8134 59.0513 32.3494C59.0513 32.8854 59.4858 33.32 60.0218 33.32Z" fill="white"/>
<path d="M53.2283 33.32C53.7643 33.32 54.1989 32.8854 54.1989 32.3494C54.1989 31.8134 53.7643 31.3789 53.2283 31.3789C52.6923 31.3789 52.2578 31.8134 52.2578 32.3494C52.2578 32.8854 52.6923 33.32 53.2283 33.32Z" fill="white"/>
<path d="M48.3758 33.32C48.9118 33.32 49.3463 32.8854 49.3463 32.3494C49.3463 31.8134 48.9118 31.3789 48.3758 31.3789C47.8398 31.3789 47.4053 31.8134 47.4053 32.3494C47.4053 32.8854 47.8398 33.32 48.3758 33.32Z" fill="white"/>
<path d="M42.553 33.32C43.0891 33.32 43.5236 32.8854 43.5236 32.3494C43.5236 31.8134 43.0891 31.3789 42.553 31.3789C42.017 31.3789 41.5825 31.8134 41.5825 32.3494C41.5825 32.8854 42.017 33.32 42.553 33.32Z" fill="white"/>
<path d="M86.2216 52.7317C86.22 52.5024 86.1372 52.2811 85.988 52.107C85.8388 51.9329 85.6328 51.8172 85.4064 51.7805C85.9147 50.5409 86.191 49.2185 86.2216 47.8791C86.2201 47.6237 86.1179 47.3791 85.9373 47.1985C85.7567 47.0179 85.5122 46.9158 85.2567 46.9143C84.8203 46.9218 84.3847 46.9582 83.9531 47.0235C84.401 45.7171 84.4125 43.9078 84.2536 43.2702C84.3142 43.0355 84.2735 43.2366 84.2854 38.175C84.2854 37.9176 84.1831 37.6707 84.0011 37.4887C83.8191 37.3067 83.5722 37.2044 83.3148 37.2044C83.0574 37.2044 82.8106 37.3067 82.6286 37.4887C82.4466 37.6707 82.3443 37.9176 82.3443 38.175V42.4758C81.6906 42.4727 81.0386 42.5446 80.4012 42.6902C80.3655 40.4158 79.0415 38.5365 78.4622 37.8219V33.3221C78.4622 33.0647 78.36 32.8178 78.178 32.6358C77.996 32.4538 77.7491 32.3516 77.4917 32.3516C77.2343 32.3516 76.9874 32.4538 76.8054 32.6358C76.6234 32.8178 76.5212 33.0647 76.5212 33.3221V37.8217C75.9417 38.5365 74.6165 40.417 74.5822 42.6925C73.9448 42.5468 73.2929 42.4748 72.6391 42.4779V38.1747C72.6391 37.9173 72.5368 37.6705 72.3548 37.4884C72.1728 37.3064 71.9259 37.2042 71.6686 37.2042C71.4112 37.2042 71.1643 37.3064 70.9823 37.4884C70.8003 37.6705 70.698 37.9173 70.698 38.1747C70.7102 43.2195 70.6709 43.0374 70.7288 43.2662C70.6055 43.7467 70.5194 45.5418 71.0258 47.0218C70.1473 46.8945 69.1788 46.7013 68.8352 47.5027C68.4444 47.7127 68.0684 47.9493 67.71 48.2108C67.5021 46.8488 66.6752 45.2386 66.2382 44.7467C66.1831 44.5107 66.2403 44.7076 63.9063 40.2162C63.7871 39.9881 63.5821 39.8166 63.3365 39.7396C63.0909 39.6626 62.8248 39.6863 62.5966 39.8055C62.3685 39.9247 62.1971 40.1297 62.12 40.3753C62.043 40.6209 62.0667 40.887 62.1859 41.1152L64.1782 44.9269C63.5972 45.2269 63.0527 45.5927 62.5552 46.0169C61.4703 44.0179 59.4263 42.9655 58.582 42.6005L56.4978 38.6127C56.3779 38.3857 56.173 38.2154 55.9279 38.1392C55.6828 38.0629 55.4175 38.0868 55.19 38.2057C54.9626 38.3246 54.7914 38.5288 54.7141 38.7736C54.6368 39.0183 54.6596 39.2837 54.7775 39.5117L56.8616 43.4994C56.6796 44.4011 56.3764 46.681 57.3988 48.7136C56.7664 48.8796 56.1553 49.1178 55.5775 49.4237L53.5846 45.6106C53.4654 45.3825 53.2605 45.2111 53.0149 45.134C52.7693 45.057 52.5031 45.0807 52.275 45.1999C52.0468 45.3191 51.8754 45.5241 51.7984 45.7697C51.7214 46.0153 51.7451 46.2814 51.8643 46.5096C54.2277 51.0057 54.0891 50.8267 54.2497 51.0066C54.3698 51.5208 55.1438 53.1457 56.253 54.1987C55.8399 54.3403 55.437 54.5102 55.0472 54.7072C54.8215 54.8269 54.6521 55.0307 54.5756 55.2744C54.4992 55.5182 54.522 55.7822 54.639 56.0093C55.2865 57.1821 56.1436 58.2261 57.1679 59.0895C56.9845 59.227 56.8556 59.4249 56.8041 59.6482C56.7526 59.8716 56.7818 60.106 56.8866 60.3098C57.5351 61.4845 58.3939 62.53 59.4203 63.3943C59.2361 63.5314 59.1066 63.7294 59.0548 63.9531C59.0029 64.1767 59.0321 64.4115 59.1371 64.6157C59.7836 65.7869 60.6393 66.8298 61.6618 67.6925C61.479 67.8301 61.3507 68.0279 61.2995 68.2509C61.2483 68.474 61.2776 68.7079 61.3822 68.9115C61.455 69.0531 63.2055 72.3897 66.4464 73.4057C68.3308 73.9965 70.444 73.7056 72.2797 72.9998C77.006 82.0429 76.6517 81.4584 76.9072 81.651C77.0155 81.7331 77.14 81.7916 77.2724 81.8224C77.4048 81.8533 77.5423 81.856 77.6758 81.8302C77.8093 81.8044 77.9359 81.7508 78.0473 81.6728C78.1587 81.5948 78.2524 81.4942 78.3223 81.3776C78.6237 80.8782 78.3779 80.9045 78.4622 71.1074C79.7744 70.9559 82.1303 70.4504 83.8148 68.766C86.2168 66.364 86.2221 62.5965 86.2212 62.4372C86.2196 62.2083 86.1372 61.9874 85.9884 61.8134C85.8397 61.6394 85.6343 61.5235 85.4084 61.4864C85.9152 60.2483 86.1907 58.9278 86.2212 57.5903C86.2196 57.3606 86.1366 57.139 85.987 56.9647C85.8373 56.7905 85.6307 56.675 85.4039 56.6387C85.9136 55.3975 86.1908 54.0732 86.2216 52.7317ZM76.4201 54.578C75.2618 53.2114 73.6318 52.4246 71.891 52.035C71.2134 50.9987 70.9198 49.7942 70.7936 48.9513C74.1351 49.4521 75.919 51.2323 76.4201 54.578ZM76.421 59.4366C75.2656 58.073 73.6375 57.284 71.8941 56.893C71.2147 55.8554 70.9199 54.6486 70.7936 53.8039C74.1396 54.3054 75.9219 56.0905 76.421 59.4366ZM76.4191 64.2815C75.2639 62.9184 73.6333 62.1293 71.887 61.7394C71.2113 60.7035 70.9187 59.5004 70.7931 58.6591C74.1949 59.1623 75.9256 61.0021 76.4191 64.2818V64.2815ZM63.2518 48.0851C63.7682 47.4002 64.5599 46.9083 65.1305 46.6184C66.266 48.7565 65.6657 49.6361 65.6856 50.1017C64.9216 51.0094 64.3936 52.0917 64.1486 53.2525L63.178 51.3948C63.3982 50.3046 63.4232 49.184 63.2518 48.0851ZM58.6382 44.8035C60.7311 46.0275 61.5916 47.6692 61.4011 50.0902C59.3081 48.8665 58.4479 47.2249 58.6382 44.8035ZM56.4201 51.1732C56.9857 50.8699 57.8434 50.4993 58.7015 50.4677C59.5049 51.234 60.4377 51.8519 61.4567 52.2928L62.4311 54.1572C61.3368 53.6938 60.1449 53.5082 58.9615 53.6169C58.6086 53.3485 57.5287 53.3308 56.4201 51.1732ZM61.4387 64.6228C62.4646 64.2682 64.135 63.8806 65.6876 64.3675C65.8093 64.4061 65.9375 64.4204 66.0648 64.4094C66.1921 64.3984 66.3159 64.3624 66.4292 64.3034C66.5426 64.2445 66.6431 64.1637 66.7252 64.0658C66.8072 63.9679 66.8691 63.8547 66.9074 63.7328C66.9456 63.6109 66.9594 63.4827 66.9479 63.3555C66.9365 63.2282 66.9 63.1045 66.8406 62.9914C66.7813 62.8783 66.7001 62.778 66.6019 62.6963C66.5037 62.6146 66.3903 62.5531 66.2683 62.5154C64.582 61.9868 62.8704 62.2044 61.5947 62.5451C60.5099 61.9397 59.689 61.0044 59.1861 60.3141C60.4955 59.8583 62.0654 59.6316 63.4374 60.0624C63.559 60.1005 63.6869 60.1144 63.8139 60.1031C63.9408 60.0918 64.0643 60.0556 64.1773 59.9966C64.2903 59.9376 64.3905 59.8569 64.4723 59.7592C64.5541 59.6615 64.6159 59.5486 64.654 59.427C64.6922 59.3054 64.706 59.1774 64.6947 59.0505C64.6835 58.9235 64.6473 58.8 64.5883 58.6871C64.5293 58.5741 64.4486 58.4738 64.3509 58.392C64.2531 58.3103 64.1402 58.2485 64.0186 58.2104C62.3309 57.6807 60.6168 57.8991 59.3406 58.2403C58.2591 57.6349 57.4404 56.702 56.9385 56.0133C57.9599 55.6579 59.6256 55.2706 61.1902 55.762C63.6478 56.5316 65.0965 59.2664 65.1107 59.2941C65.1259 59.3235 65.1426 59.3522 65.1608 59.38C66.0083 60.7422 66.0562 61.782 67.0048 61.782C67.1715 61.7815 67.3353 61.7381 67.4805 61.656C67.6256 61.5739 67.7471 61.4559 67.8334 61.3132C67.9198 61.1705 67.9679 61.0081 67.9733 60.8414C67.9786 60.6748 67.941 60.5096 67.8641 60.3616C67.562 59.6017 65.1734 56.3461 66.1728 53.1578C66.6871 51.5159 68.0782 50.3251 68.9538 49.7105C69.0877 50.4201 69.2947 51.114 69.5715 51.7811C69.3452 51.8178 69.1393 51.9335 68.9902 52.1076C68.841 52.2817 68.7584 52.503 68.757 52.7322C68.7876 54.0737 69.0645 55.398 69.5737 56.6394C69.3471 56.6758 69.1407 56.7913 68.9912 56.9654C68.8417 57.1395 68.7587 57.3609 68.757 57.5904C68.7876 58.9279 69.0631 60.2484 69.5698 61.4865C69.3438 61.5237 69.1383 61.6396 68.9896 61.8137C68.8409 61.9878 68.7585 62.2089 68.757 62.4378C68.7562 62.5739 68.7617 65.3441 70.2613 67.6458C68.3069 66.3749 66.1475 66.2229 63.8316 66.843C62.7552 66.2387 61.9396 65.3099 61.4387 64.6228ZM63.682 68.9161C65.0286 68.4473 66.5729 68.2367 67.9331 68.6638C69.4878 69.1512 70.6385 70.4254 71.278 71.302C68.1071 72.4043 65.686 71.6639 63.682 68.9161ZM70.794 63.51C74.1366 64.0109 75.9184 65.7899 76.4201 69.136C73.0774 68.6346 71.2956 66.8557 70.794 63.5095V63.51ZM76.5212 76.9252C73.6407 71.4455 73.5586 71.0682 72.6491 69.8927C74.0528 70.6997 75.5655 70.9983 76.5212 71.1083V76.9252ZM76.5212 49.8476C75.7659 48.9297 74.7953 48.2129 73.696 47.761C73.5068 47.3585 72.5588 46.8439 72.5755 44.4182C73.2165 44.4123 74.1488 44.4803 74.9243 44.8497C75.2815 45.9011 75.8222 46.8809 76.5212 47.7437V49.8476ZM77.4917 45.7654C76.2036 43.7117 76.2019 41.8576 77.4917 39.8005C78.7797 41.8542 78.7816 43.7079 77.4917 45.7652V45.7654ZM78.4622 47.744C79.1622 46.88 79.7034 45.8987 80.0606 44.8457C80.8341 44.4791 81.761 44.4114 82.4019 44.4159C82.4256 46.8689 81.4921 47.3167 81.2835 47.761C80.1862 48.211 79.217 48.9252 78.4622 49.8401V47.744ZM78.5582 69.1358C79.059 65.7935 80.8381 64.0111 84.1842 63.5098C83.6834 66.8517 81.9043 68.6343 78.5582 69.1356V69.1358ZM83.0914 61.7382C81.3387 62.1302 79.711 62.9227 78.5594 64.2813C79.0527 61.0024 80.7779 59.173 84.1848 58.6626C84.0589 59.5035 83.766 60.704 83.0914 61.738V61.7382ZM83.0833 56.8935C81.3569 57.2807 79.7195 58.0639 78.5582 59.4356C79.0519 56.126 80.8001 54.3111 84.1853 53.804C84.0584 54.6485 83.7637 55.8557 83.0833 56.8937V56.8935ZM83.0858 52.0362C81.3375 52.4274 79.7119 53.2161 78.5585 54.5772C79.0592 51.2352 80.8393 49.4526 84.1848 48.9514C84.0585 49.7947 83.7644 50.9998 83.0858 52.036V52.0362Z" fill="white"/>
</svg>
