<svg width="104" height="105" viewBox="0 0 104 105" fill="none" xmlns="http://www.w3.org/2000/svg">
<ellipse cx="52" cy="52.5" rx="52" ry="52.5" fill="#665CD1"/>
<path d="M89.8246 74.2963L79.235 66.3542C78.4157 65.7396 77.3375 65.6424 76.4216 66.1004C76.3299 66.1462 76.2427 66.1978 76.1582 66.2526L68.1757 60.2658V58.5047H74.0995C75.689 58.5047 77.0323 57.3667 77.2936 55.7988L80.1519 38.6492H80.3807C80.9507 38.6492 81.4128 38.1871 81.4128 37.6171C81.4128 37.0471 80.9507 36.585 80.3807 36.585H68.2467C67.4028 36.585 66.6148 36.8279 65.9477 37.2462C65.763 35.6349 64.3915 34.3789 62.7314 34.3789H27.0542C25.6001 34.3789 24.2328 34.9452 23.2044 35.9735L20.0845 39.0935C19.6815 39.4965 19.6815 40.15 20.0845 40.553L23.3937 43.8622C23.5952 44.0636 23.8594 44.1645 24.1234 44.1645C24.3875 44.1645 24.6517 44.0637 24.8532 43.8622L27.8602 40.8551H41.8439V43.2033H32.9481C31.7707 43.2033 30.813 44.161 30.813 45.3384V56.4402H30.742C29.5646 56.4402 28.6068 57.3979 28.6068 58.5753V66.3356C27.2693 67.3286 26.4007 68.9192 26.4007 70.7092C26.4007 73.7112 28.8431 76.1536 31.845 76.1536C34.4941 76.1536 36.7063 74.2513 37.19 71.7412H55.802C57.0238 74.3452 59.6698 76.1536 62.7313 76.1536C66.4058 76.1536 69.4827 73.5493 70.2153 70.0897L74.9363 72.45V73.4668C74.9363 74.9483 76.1414 76.1535 77.6229 76.1535H89.2054C89.6496 76.1535 90.0439 75.8692 90.1844 75.4478C90.3249 75.0269 90.18 74.5629 89.8246 74.2963ZM75.8295 52.0282H70.453C70.4138 52.0282 70.382 51.9964 70.382 51.9572V43.0615H77.324L75.8295 52.0282ZM65.9696 40.9264C65.9696 39.6708 66.9911 38.6492 68.2467 38.6492H78.0593L77.6679 40.9974H69.3499C68.78 40.9974 68.3179 41.4595 68.3179 42.0295V51.9572C68.3179 53.1346 69.2756 54.0923 70.453 54.0923H75.4854L75.2576 55.4595C75.1629 56.0279 74.6758 56.4405 74.0995 56.4405H65.9696V40.9264ZM27.4328 38.7913C27.1591 38.7913 26.8965 38.9 26.703 39.0936L24.1236 41.6731L22.2739 39.8234L24.6641 37.4331C25.3026 36.7946 26.1515 36.443 27.0544 36.443H41.844V38.7913H27.4328ZM31.845 74.0899C29.9811 74.0899 28.4648 72.5735 28.4648 70.7096C28.4648 68.8457 29.9813 67.3294 31.845 67.3294C33.7088 67.3294 35.2252 68.8458 35.2252 70.7096C35.2252 72.5733 33.7089 74.0899 31.845 74.0899ZM55.1711 69.6775H37.1901C36.7063 67.1676 34.4943 65.2653 31.8452 65.2653C31.442 65.2653 31.0495 65.3107 30.6711 65.3942V58.5757C30.6711 58.5365 30.7029 58.5047 30.7421 58.5047H34.0513C34.6213 58.5047 35.0834 58.0426 35.0834 57.4727C35.0834 56.9027 34.6213 56.4406 34.0513 56.4406H32.8772V45.3388C32.8772 45.2996 32.909 45.2678 32.9482 45.2678H58.3193C58.8892 45.2678 59.3513 44.8057 59.3513 44.2358C59.3513 43.6658 58.8892 43.2037 58.3193 43.2037H43.908V36.443H62.7314C63.3788 36.443 63.9055 36.9698 63.9055 37.6171V40.9264V43.2036H62.7309C62.1609 43.2036 61.6988 43.6656 61.6988 44.2356C61.6988 44.8056 62.1609 45.2677 62.7309 45.2677H63.9055V56.4405H38.4638C37.8939 56.4405 37.4318 56.9026 37.4318 57.4725C37.4318 58.0425 37.8939 58.5046 38.4638 58.5046H66.1116V61.6425C65.0915 61.1379 63.9443 60.8529 62.7314 60.8529C58.5129 60.8529 55.0808 64.2848 55.0808 68.5035C55.0808 68.9027 55.1118 69.2947 55.1711 69.6775ZM62.7314 74.0899C59.651 74.0899 57.1449 71.5838 57.1449 68.5035C57.1449 65.4231 59.6509 62.917 62.7314 62.917C65.8119 62.917 68.3179 65.423 68.3179 68.5035C68.3179 71.5839 65.8118 74.0899 62.7314 74.0899ZM74.9364 68.5035V70.1428L70.3521 67.8508C70.1966 66.0205 69.3952 64.3719 68.1757 63.1352V62.846L74.9918 67.958C74.9557 68.1349 74.9364 68.3174 74.9364 68.5035ZM77.623 74.0899C77.2797 74.0899 77.0005 73.8106 77.0005 73.4674V68.5035C77.0005 68.1563 77.2412 67.9984 77.3447 67.9467C77.4001 67.9189 77.5035 67.878 77.6303 67.878C77.7402 67.878 77.8677 67.9087 77.9967 68.0054L86.1092 74.0899H77.623Z" fill="white"/>
<path d="M64.938 67.4738C64.368 67.4738 63.9059 67.9358 63.9059 68.5058C63.9059 69.1533 63.3791 69.6799 62.7318 69.6799C62.0845 69.6799 61.5578 69.1531 61.5578 68.5058C61.5578 68.0879 61.783 67.6979 62.1455 67.4882C62.6388 67.2028 62.8075 66.5715 62.5221 66.078C62.2367 65.5845 61.6052 65.416 61.1119 65.7014C60.1137 66.2788 59.4937 67.3534 59.4937 68.5057C59.4937 70.2913 60.9464 71.7439 62.7318 71.7439C64.5173 71.7439 65.97 70.2911 65.97 68.5057C65.97 67.9358 65.5079 67.4738 64.938 67.4738Z" fill="white"/>
<path d="M31.8564 69.6758H31.8454C31.2754 69.6758 30.8188 70.1379 30.8188 70.7078C30.8188 71.2778 31.2864 71.7399 31.8564 71.7399C32.4264 71.7399 32.8885 71.2778 32.8885 70.7078C32.8885 70.1379 32.4264 69.6758 31.8564 69.6758Z" fill="white"/>
<path d="M51.7001 65.2617H38.4632C37.8932 65.2617 37.4312 65.7238 37.4312 66.2938C37.4312 66.8637 37.8932 67.3258 38.4632 67.3258H51.7001C52.2701 67.3258 52.7322 66.8637 52.7322 66.2938C52.7322 65.7238 52.2701 65.2617 51.7001 65.2617Z" fill="white"/>
<path d="M42.8757 52.0273H36.2572C35.6872 52.0273 35.2251 52.4894 35.2251 53.0594C35.2251 53.6294 35.6872 54.0915 36.2572 54.0915H42.8757C43.4457 54.0915 43.9077 53.6294 43.9077 53.0594C43.9077 52.4894 43.4457 52.0273 42.8757 52.0273Z" fill="white"/>
<path d="M42.8757 47.6133H36.2572C35.6872 47.6133 35.2251 48.0754 35.2251 48.6453C35.2251 49.2153 35.6872 49.6774 36.2572 49.6774H42.8757C43.4457 49.6774 43.9077 49.2153 43.9077 48.6453C43.9077 48.0754 43.4457 47.6133 42.8757 47.6133Z" fill="white"/>
</svg>
