<svg width="105" height="104" viewBox="0 0 105 104" fill="none" xmlns="http://www.w3.org/2000/svg">
<ellipse cx="52.5" cy="52" rx="52.5" ry="52" fill="#665CD1"/>
<path d="M86.2852 57.5075V56.129C86.2853 55.8858 86.2437 55.6443 86.1622 55.4148L84.219 47.8201H86.2852C86.5426 47.8201 86.7895 47.7192 86.9715 47.5398C87.1536 47.3603 87.2559 47.1169 87.2559 46.863C87.2559 46.6092 87.1536 46.3658 86.9715 46.1863C86.7895 46.0068 86.5426 45.906 86.2852 45.906H69.4526C69.3308 45.9011 69.2093 45.9211 69.0958 45.9648C68.9822 46.0085 68.8791 46.0749 68.7929 46.1599C68.7067 46.2449 68.6393 46.3465 68.5949 46.4585C68.5506 46.5704 68.5302 46.6902 68.5352 46.8103V66.0037H46.1363C45.2559 65.576 44.2875 65.3536 43.306 65.3536C42.3245 65.3536 41.3562 65.576 40.4757 66.0037H34.4036C33.5229 65.576 32.5544 65.3536 31.5727 65.3536C30.591 65.3536 29.6224 65.576 28.7417 66.0037H22.775C22.3661 66.0132 21.9773 66.1803 21.6919 66.4691C21.4065 66.7579 21.2472 67.1454 21.2481 67.5486V71.3059C21.2478 71.7079 21.4076 72.0939 21.6932 72.3807C21.9788 72.6676 22.3673 72.8324 22.775 72.8396H25.2433C25.4886 74.1402 26.1298 75.3362 27.0816 76.2686C27.8237 76.9803 28.7291 77.505 29.7209 77.798C30.7127 78.091 31.7615 78.1437 32.7783 77.9516C33.7952 77.7596 34.75 77.3285 35.5618 76.6949C36.3735 76.0613 37.0182 75.2439 37.441 74.3122C37.8649 75.2429 38.51 76.0592 39.3217 76.6919C40.1335 77.3247 41.0879 77.7553 42.1042 77.9473C43.1205 78.1392 44.1688 78.0869 45.1602 77.7947C46.1516 77.5025 47.0571 76.9791 47.7998 76.2688C48.7515 75.3363 49.3926 74.1402 49.6378 72.8396H72.5195C72.7646 74.14 73.4056 75.3359 74.3572 76.2682C75.5599 77.4214 77.1713 78.0668 78.849 78.0675C80.5267 78.0681 82.1385 77.424 83.3423 76.2718C84.2942 75.3383 84.9353 74.1411 85.1801 72.8396H88.7797C89.0403 72.8331 89.288 72.7262 89.4697 72.5419C89.6514 72.3576 89.7527 72.1105 89.752 71.8534V63.1829C89.7507 62.0158 89.4274 60.8711 88.8167 59.8713C88.206 58.8715 87.3309 58.0544 86.2852 57.5075ZM25.2057 70.9255H23.1895V67.9177H26.4127C25.7621 68.8748 25.3479 69.8318 25.2057 70.9255ZM36.0552 71.8301C36.0272 72.9844 35.5422 74.0821 34.7038 74.8884C33.8654 75.6947 32.7403 76.1455 31.5691 76.1444C30.398 76.1433 29.2737 75.6904 28.4369 74.8825C27.6002 74.0746 27.1173 72.976 27.0915 71.8216C27.0906 71.7904 27.0907 71.7583 27.0907 71.7271C27.0899 70.6125 27.5172 69.5389 28.2866 68.7222L28.3051 68.704C28.3116 68.6977 28.3178 68.6911 28.3242 68.6844C28.6469 68.3475 29.0218 68.0632 29.435 67.8421C30.0913 67.4919 30.8258 67.3086 31.572 67.3086C32.3183 67.3086 33.0528 67.4919 33.7091 67.8421L33.7133 67.8443C34.1258 68.065 34.5002 68.3487 34.8226 68.685C34.829 68.6917 34.8354 68.6987 34.8419 68.7047L34.8606 68.7231C35.6304 69.5395 36.0577 70.6132 36.0564 71.7278C36.0563 71.7583 36.0564 71.7904 36.0552 71.8301ZM37.4419 69.1073C37.2423 68.691 37.0056 68.2929 36.7346 67.9179H38.1477C37.8777 68.2933 37.6415 68.6912 37.4417 69.1072L37.4419 69.1073ZM47.7344 71.7271V71.8407C47.7344 74.2157 45.6912 76.1461 43.2795 76.1461C42.1105 76.1383 40.9905 75.6822 40.1566 74.8744C39.3227 74.0667 38.8404 72.9707 38.8118 71.8184C38.8106 71.7884 38.8176 71.7573 38.8176 71.7271C38.8181 70.9316 39.0362 70.151 39.449 69.4675C39.8618 68.784 40.454 68.2229 41.1631 67.8435C41.1644 67.8435 41.1676 67.8421 41.1685 67.8414C41.824 67.489 42.5592 67.3055 43.3058 67.3082C44.0515 67.3083 44.7854 67.4915 45.4413 67.8414L45.4457 67.8438C46.1031 68.1965 46.6591 68.7076 47.0621 69.3293C47.4651 69.951 47.7019 70.6632 47.7505 71.3995C47.758 71.5011 47.7344 71.6083 47.7344 71.7271ZM68.5352 70.9255H49.6758C49.5321 69.8318 49.1144 68.8748 48.4747 67.9177H68.5352V70.9255ZM77.2715 47.8201H82.2167L84.2898 55.9226C84.298 55.9496 84.3076 55.9762 84.3187 56.0023C84.3352 56.0425 84.3437 56.0856 84.3438 56.129V56.8524C83.9784 56.7726 83.6067 56.7239 83.2329 56.7068H79.1099C78.1159 56.7068 77.2715 55.9599 77.2715 54.9798V47.8201ZM70.4766 47.8201H75.3301V54.9798C75.3301 56.7024 76.5781 58.1535 78.2422 58.5584V61.0818H70.4766V47.8201ZM83.3315 71.8309C83.3039 72.9851 82.8193 74.0829 81.9813 74.8894C81.1432 75.6959 80.0184 76.147 78.8474 76.1463C77.6763 76.1456 76.552 75.6931 75.715 74.8856C74.878 74.0781 74.3948 72.9797 74.3687 71.8254C74.3678 71.7927 74.3687 71.7592 74.3687 71.727C74.3687 70.5831 74.8187 69.4837 75.6239 68.6602C76.4292 67.8366 77.527 67.353 78.6865 67.3111C79.8459 67.2691 80.9767 67.6721 81.841 68.4352C82.7054 69.1984 83.2358 70.2623 83.3209 71.4031C83.329 71.5073 83.333 71.6162 83.333 71.727C83.3314 71.7602 83.3315 71.7948 83.3315 71.8309ZM87.8106 70.9255H85.2174C85.0135 69.403 84.2553 68.0055 83.084 66.9931C81.9127 65.9808 80.4081 65.4227 78.8505 65.4227C77.2928 65.4227 75.7883 65.9808 74.617 66.9931C73.4457 68.0055 72.6875 69.403 72.4836 70.9255H70.4766V67.0198C70.4766 67.0136 70.4775 67.0076 70.4775 67.0013C70.4775 66.995 70.4766 66.989 70.4766 66.9827V62.9958H79.162C79.6981 62.9958 80.1836 62.6341 80.1836 62.1054V58.6208H83.2329C85.7567 58.6208 87.8106 60.6951 87.8106 63.1829V70.9255Z" fill="white"/>
<path d="M29.5684 46.9678C29.3109 46.9678 29.064 47.0686 28.882 47.2481C28.6999 47.4276 28.5977 47.671 28.5977 47.9248V58.9352C28.5977 59.189 28.6999 59.4324 28.882 59.6119C29.064 59.7914 29.3109 59.8922 29.5684 59.8922C29.8258 59.8922 30.0727 59.7914 30.2547 59.6119C30.4368 59.4324 30.5391 59.189 30.5391 58.9352V47.9248C30.5391 47.671 30.4368 47.4276 30.2547 47.2481C30.0727 47.0686 29.8258 46.9678 29.5684 46.9678Z" fill="white"/>
<path d="M37.0566 46.9678C36.7992 46.9678 36.5523 47.0686 36.3703 47.2481C36.1882 47.4276 36.0859 47.671 36.0859 47.9248V58.9352C36.0859 59.189 36.1882 59.4324 36.3703 59.6119C36.5523 59.7914 36.7992 59.8922 37.0566 59.8922C37.3141 59.8922 37.561 59.7914 37.743 59.6119C37.9251 59.4324 38.0273 59.189 38.0273 58.9352V47.9248C38.0273 47.671 37.9251 47.4276 37.743 47.2481C37.561 47.0686 37.3141 46.9678 37.0566 46.9678Z" fill="white"/>
<path d="M44.4062 46.9678C44.1488 46.9678 43.9019 47.0686 43.7199 47.2481C43.5378 47.4276 43.4355 47.671 43.4355 47.9248V58.9352C43.4355 59.189 43.5378 59.4324 43.7199 59.6119C43.9019 59.7914 44.1488 59.8922 44.4062 59.8922C44.6637 59.8922 44.9106 59.7914 45.0926 59.6119C45.2747 59.4324 45.377 59.189 45.377 58.9352V47.9248C45.377 47.671 45.2747 47.4276 45.0926 47.2481C44.9106 47.0686 44.6637 46.9678 44.4062 46.9678Z" fill="white"/>
<path d="M51.7559 46.9678C51.4984 46.9678 51.2515 47.0686 51.0695 47.2481C50.8874 47.4276 50.7852 47.671 50.7852 47.9248V58.9352C50.7852 59.189 50.8874 59.4324 51.0695 59.6119C51.2515 59.7914 51.4984 59.8922 51.7559 59.8922C52.0133 59.8922 52.2602 59.7914 52.4423 59.6119C52.6243 59.4324 52.7266 59.189 52.7266 58.9352V47.9248C52.7266 47.671 52.6243 47.4276 52.4423 47.2481C52.2602 47.0686 52.0133 46.9678 51.7559 46.9678Z" fill="white"/>
<path d="M59.2441 46.9678C58.9867 46.9678 58.7398 47.0686 58.5578 47.2481C58.3757 47.4276 58.2734 47.671 58.2734 47.9248V58.9352C58.2734 59.189 58.3757 59.4324 58.5578 59.6119C58.7398 59.7914 58.9867 59.8922 59.2441 59.8922C59.5016 59.8922 59.7485 59.7914 59.9305 59.6119C60.1126 59.4324 60.2148 59.189 60.2148 58.9352V47.9248C60.2148 47.671 60.1126 47.4276 59.9305 47.2481C59.7485 47.0686 59.5016 46.9678 59.2441 46.9678Z" fill="white"/>
<path d="M23.6055 64.2267H65.2071C65.7432 64.2267 66.1778 63.7315 66.1778 63.203V43.6574C66.1778 43.6261 66.1778 43.5948 66.1778 43.5638V43.5606C66.1753 43.5326 66.1702 43.5048 66.1624 43.4778C66.1497 43.4146 66.1307 43.3528 66.1055 43.2933C66.1049 43.2925 66.1044 43.2916 66.104 43.2907C66.0946 43.2687 66.0834 43.2474 66.0725 43.2262C66.0692 43.2198 66.0662 43.2125 66.0628 43.2065C66.0541 43.1908 66.0444 43.1759 66.0351 43.1607C66.0279 43.1492 66.0212 43.1373 66.0135 43.1261C66.0057 43.1149 65.9996 43.1074 65.9927 43.0988C65.981 43.0828 65.9695 43.0668 65.9567 43.0515C65.9534 43.0474 65.9495 43.0437 65.9462 43.0397C65.8849 42.9685 65.8133 42.9066 65.7336 42.8561C65.7121 42.8424 65.6901 42.8288 65.6672 42.8166C65.6655 42.8156 65.6635 42.8149 65.6617 42.814C65.6346 42.7998 65.6068 42.7868 65.5784 42.7752L65.5966 42.7745L45.6544 34.6621V33.5673C47.0411 33.0695 48.1883 31.6837 48.1883 30.0553C48.1832 29.2365 47.9052 28.4421 47.3973 27.7944C46.8893 27.1467 46.1794 26.6816 45.377 26.4706V23.3478H45.8023C46.0183 23.349 46.2284 23.2788 46.3991 23.1484C46.5698 23.018 46.6912 22.835 46.744 22.6286L48.14 17.126C48.1757 16.9873 48.1783 16.8422 48.1477 16.7023C48.117 16.5624 48.054 16.4313 47.9634 16.3194C47.8719 16.2066 47.7553 16.1159 47.6227 16.0545C47.49 15.993 47.3448 15.9624 47.1983 15.965H41.6143C41.4677 15.9622 41.3224 15.9927 41.1897 16.0543C41.057 16.1159 40.9406 16.2069 40.8494 16.3201C40.7583 16.4334 40.6949 16.5659 40.6642 16.7073C40.6336 16.8486 40.6364 16.9951 40.6726 17.1352L42.0686 22.6313C42.1214 22.8375 42.243 23.0202 42.4137 23.1501C42.5845 23.2801 42.7946 23.3497 43.0103 23.3478H43.4356V27.3026C43.4356 27.4282 43.4607 27.5527 43.5095 27.6688C43.5583 27.7849 43.6298 27.8904 43.7199 27.9793C43.81 28.0682 43.9171 28.1387 44.0348 28.1867C44.1526 28.2348 44.2788 28.2596 44.4063 28.2596C44.7665 28.2596 45.1187 28.3649 45.4182 28.5622C45.7177 28.7595 45.9511 29.04 46.089 29.3681C46.2268 29.6962 46.2629 30.0573 46.1926 30.4056C46.1223 30.7539 45.9489 31.0739 45.6942 31.325C45.4395 31.5761 45.1149 31.7471 44.7616 31.8164C44.4083 31.8857 44.0421 31.8501 43.7093 31.7142C43.3765 31.5783 43.0921 31.3482 42.8919 31.0529C42.6918 30.7576 42.585 30.4104 42.585 30.0553C42.585 29.8014 42.4827 29.558 42.3007 29.3785C42.1186 29.1991 41.8717 29.0982 41.6143 29.0982C41.4878 29.0986 41.3627 29.1238 41.2462 29.1722C41.1297 29.2207 41.0241 29.2915 40.9356 29.3806C40.8471 29.4696 40.7774 29.5751 40.7306 29.6909C40.6838 29.8068 40.6608 29.9306 40.663 30.0553C40.6539 30.9192 40.955 31.7584 41.5133 32.4244C42.0715 33.0903 42.8507 33.5401 43.7129 33.694V34.6567L23.2622 42.7709C23.2608 42.7709 23.2497 42.7723 23.2483 42.773C23.2258 42.782 23.1993 42.7923 23.1779 42.8029C23.1701 42.8067 23.1595 42.81 23.1521 42.8141C23.1343 42.8234 23.1161 42.834 23.0991 42.8442C23.0884 42.8508 23.0766 42.8566 23.0662 42.8635C23.0558 42.8703 23.0454 42.8785 23.0352 42.8859C23.0194 42.8971 23.0034 42.9081 22.9887 42.9201C22.9873 42.921 22.9862 42.9223 22.9848 42.9234C22.8242 43.0538 22.7111 43.2323 22.6625 43.4318C22.6602 43.4415 22.6571 43.4511 22.6549 43.4609C22.6523 43.4746 22.6505 43.4883 22.6484 43.5013C22.6452 43.5196 22.6419 43.5378 22.6398 43.556C22.6388 43.5648 22.6387 43.574 22.6379 43.5833C22.6361 43.6065 22.6345 43.6299 22.6344 43.6534C22.6344 43.6551 22.6344 43.6566 22.6344 43.6582V63.203C22.6348 63.7315 23.0694 64.2267 23.6055 64.2267ZM43.7684 21.4338L42.8578 17.8791H45.9554L45.0442 21.4338H43.7684ZM44.6409 36.3965L60.3046 42.7619H28.6131L44.6409 36.3965ZM24.5762 44.676H64.2364V62.3127H24.5762V44.676Z" fill="white"/>
</svg>
