<svg width="105" height="105" viewBox="0 0 105 105" fill="none" xmlns="http://www.w3.org/2000/svg">
<circle cx="52.5" cy="52.5" r="52.5" fill="#665CD1"/>
<path d="M87.5513 57.6854L84.4149 50.6287C83.7024 49.0254 82.1081 47.9894 80.3536 47.9894H74.6503C73.445 47.9894 72.4645 48.9699 72.4645 50.1752V61.4681C72.4645 62.0516 72.9375 62.5246 73.521 62.5246C74.1046 62.5246 74.5776 62.0516 74.5776 61.4681V50.1752C74.5776 50.1351 74.6102 50.1025 74.6503 50.1025H76.9815V59.2095C76.9815 61.0375 78.4688 62.5246 80.2967 62.5246H86.0158V64.9286H70.0604V47.9167C70.0604 46.0887 68.5732 44.6016 66.7453 44.6016H56.1842C55.6006 44.6016 55.1276 45.0746 55.1276 45.6581C55.1276 46.2417 55.6006 46.7147 56.1842 46.7147H66.7453C67.4081 46.7147 67.9472 47.254 67.9472 47.9167V64.9287H19.3151C18.6523 64.9287 18.1132 64.3894 18.1132 63.7267V47.9167C18.1132 47.2539 18.6524 46.7147 19.3151 46.7147H29.8772C30.4607 46.7147 30.9338 46.2417 30.9338 45.6581C30.9338 45.0746 30.4607 44.6016 29.8772 44.6016H19.3151C17.4872 44.6014 16 46.0887 16 47.9167V63.7267C16 65.5547 17.4872 67.0418 19.3151 67.0418H24.5676C24.1479 67.72 23.905 68.5187 23.905 69.3731C23.905 71.8238 25.8987 73.8176 28.3494 73.8176C29.7058 73.8176 30.9214 73.2062 31.7372 72.2453C32.5532 73.2062 33.7688 73.8176 35.1252 73.8176C37.5759 73.8176 39.5696 71.8238 39.5696 69.3731C39.5696 68.5187 39.3265 67.72 38.907 67.0418H52.1372V69.3731C52.1372 70.5784 53.1177 71.5591 54.323 71.5591H57.2313C57.9957 72.9061 59.4424 73.8176 61.0986 73.8176C62.7549 73.8176 64.2016 72.9061 64.966 71.5591H74.1705C74.9349 72.9061 76.3815 73.8176 78.0378 73.8176C79.6941 73.8176 81.1408 72.9061 81.9052 71.5591H85.9427C87.1481 71.5591 88.1286 70.5784 88.1286 69.3731V60.4078C88.129 59.4638 87.9346 58.5478 87.5513 57.6854ZM80.2967 60.4115C79.6338 60.4115 79.0947 59.8722 79.0947 59.2095V50.1025H80.3536C81.2739 50.1025 82.1102 50.6459 82.4839 51.4869L85.6203 58.5437C85.8827 59.1343 86.0158 59.7615 86.0158 60.4078V60.4115H80.2967ZM28.3494 71.7044C27.0639 71.7044 26.0182 70.6586 26.0182 69.3731C26.0182 68.0876 27.0639 67.0418 28.3494 67.0418C29.6349 67.0418 30.6806 68.0876 30.6806 69.3731C30.6806 70.6586 29.6349 71.7044 28.3494 71.7044ZM37.4565 69.3731C37.4565 70.6586 36.4108 71.7044 35.1253 71.7044C33.8398 71.7044 32.7939 70.6586 32.7939 69.3731C32.7939 68.0876 33.8398 67.0418 35.1253 67.0418C36.4108 67.0418 37.4565 68.0876 37.4565 69.3731ZM54.323 69.4458C54.2829 69.4458 54.2503 69.4131 54.2503 69.3729V67.0417H57.317C56.8973 67.7199 56.6544 68.5185 56.6544 69.3729C56.6544 69.3973 56.6558 69.4214 56.6562 69.4458H54.323ZM61.0988 71.7044C59.8133 71.7044 58.7676 70.6586 58.7676 69.3731C58.7676 68.0876 59.8133 67.0418 61.0988 67.0418C62.3843 67.0418 63.43 68.0876 63.43 69.3731C63.43 70.6586 62.3843 71.7044 61.0988 71.7044ZM65.5413 69.4458C65.5418 69.4214 65.5432 69.3974 65.5432 69.3729C65.5432 68.5185 65.3002 67.7199 64.8806 67.0417H74.2563C73.8366 67.7199 73.5937 68.5185 73.5937 69.3729C73.5937 69.3973 73.5951 69.4214 73.5956 69.4458H65.5413ZM78.0381 71.7044C76.7526 71.7044 75.7069 70.6586 75.7069 69.3731C75.7069 68.0876 76.7526 67.0418 78.0381 67.0418C79.3236 67.0418 80.3693 68.0876 80.3693 69.3731C80.3693 70.6586 79.3236 71.7044 78.0381 71.7044ZM85.9431 69.4458H82.4807C82.4811 69.4214 82.4825 69.3974 82.4825 69.3729C82.4825 68.5185 82.2395 67.7199 81.82 67.0417H86.0158V69.3729C86.0158 69.4131 85.9833 69.4458 85.9431 69.4458Z" fill="white"/>
<path d="M42.6965 25.9988C37.1324 25.9988 32.6056 30.5256 32.6056 36.0897C32.6056 38.5519 33.6714 41.7598 35.7731 45.6245C36.0519 46.1372 36.6935 46.3265 37.2061 46.048C37.7188 45.7692 37.9083 45.1276 37.6296 44.615C35.7254 41.1136 34.7188 38.1655 34.7188 36.0897C34.7188 31.6908 38.2976 28.112 42.6965 28.112C47.0955 28.112 50.6742 31.6908 50.6742 36.0897C50.6742 41.2458 44.8849 49.4885 42.6958 52.4205C42.0761 51.5915 41.1691 50.3388 40.1914 48.8557C39.8702 48.3685 39.2147 48.2337 38.7277 48.555C38.2406 48.8762 38.1059 49.5316 38.4271 50.0187C40.2579 52.7958 41.8062 54.737 41.8713 54.8183C42.0717 55.0689 42.3753 55.2148 42.6962 55.2148C43.0172 55.2148 43.3207 55.0689 43.5212 54.8183C43.8996 54.3454 52.7871 43.1548 52.7871 36.0897C52.7874 30.5256 48.2606 25.9988 42.6965 25.9988Z" fill="white"/>
<circle cx="42.6894" cy="36.1" r="2.88516" fill="white"/>
</svg>
