<svg width="104" height="105" viewBox="0 0 104 105" fill="none" xmlns="http://www.w3.org/2000/svg">
<ellipse cx="52" cy="52.5" rx="52" ry="52.5" fill="#665CD1"/>
<path d="M85.2227 71.8235H84.0875V49.3572C84.0875 48.8062 83.6407 48.3594 83.0896 48.3594C82.5385 48.3594 82.0917 48.8062 82.0917 49.3572V71.8235H77.6883V55.7568C77.6883 55.2057 77.2415 54.7589 76.6904 54.7589H55.3597C54.8086 54.7589 54.3618 55.2057 54.3618 55.7568V71.8235H49.9582V55.7568C49.9582 55.2057 49.5115 54.7589 48.9604 54.7589H27.6298C27.0787 54.7589 26.632 55.2057 26.632 55.7568V71.8235H22.2285V70.6882C22.2285 70.1371 21.7818 69.6903 21.2307 69.6903C20.6796 69.6903 20.2328 70.1371 20.2328 70.6882V71.8235H19.0975C18.5464 71.8235 18.0996 72.2703 18.0996 72.8214C18.0996 73.3725 18.5464 73.8192 19.0975 73.8192H85.2227C85.7738 73.8192 86.2205 73.3725 86.2205 72.8214C86.2205 72.2703 85.7738 71.8235 85.2227 71.8235ZM47.9628 71.8234H28.6277V69.553H47.9628V71.8234ZM47.9628 67.5574H28.6277V65.287H47.9628V67.5574ZM47.9628 63.2913H28.6277V61.0209H47.9628V63.2913ZM47.9628 59.025H28.6277V56.7547H47.9628V59.025ZM75.6926 71.8234H56.3575V69.553H75.6926V71.8234ZM75.6926 67.5574H56.3575V65.287H75.6926V67.5574ZM75.6926 63.2913H56.3575V61.0209H75.6926V63.2913ZM75.6926 59.025H56.3575V56.7547H75.6926V59.025Z" fill="white"/>
<path d="M48.9599 46.2305H27.6292C27.0781 46.2305 26.6313 46.6772 26.6313 47.2283V51.4944C26.6313 52.0455 27.0781 52.4923 27.6292 52.4923H48.96C49.5111 52.4923 49.9579 52.0455 49.9579 51.4944V47.2283C49.9578 46.6772 49.511 46.2305 48.9599 46.2305ZM33.0305 50.4966H28.6271V48.2262H33.0306V50.4966H33.0305ZM41.5629 50.4966H35.0263V48.2262H41.5629V50.4966ZM47.9621 50.4966H43.5586V48.2262H47.9621V50.4966Z" fill="white"/>
<path d="M76.6924 46.2305H55.3616C54.8106 46.2305 54.3638 46.6772 54.3638 47.2283V51.4944C54.3638 52.0455 54.8106 52.4923 55.3616 52.4923H76.6924C77.2435 52.4923 77.6903 52.0455 77.6903 51.4944V47.2283C77.6903 46.6772 77.2435 46.2305 76.6924 46.2305ZM60.7631 50.4966H56.3595V48.2262H60.7631V50.4966ZM69.2953 50.4966H62.7587V48.2262H69.2953V50.4966ZM75.6946 50.4966H71.291V48.2262H75.6946V50.4966Z" fill="white"/>
<path d="M85.5293 42.0066L52.4667 31.3412C52.2675 31.2769 52.0532 31.2769 51.854 31.3412L18.7914 42.0066C18.2669 42.1757 17.9788 42.7381 18.1481 43.2626C18.3173 43.787 18.8793 44.0751 19.4042 43.9058L20.2331 43.6384V66.42C20.2331 66.9711 20.6799 67.4179 21.231 67.4179C21.7821 67.4179 22.2289 66.9711 22.2289 66.42V42.9947L52.1604 33.3393L82.0921 42.9947V45.0897C82.0921 45.6408 82.5388 46.0876 83.0899 46.0876C83.641 46.0876 84.0878 45.6408 84.0878 45.0897V43.6386L84.9166 43.9058C85.0185 43.9387 85.1216 43.9543 85.2231 43.9543C85.6445 43.9543 86.0363 43.6851 86.1726 43.2626C86.3418 42.7381 86.0537 42.1757 85.5293 42.0066Z" fill="white"/>
</svg>
